<svg width="327" height="327" viewBox="0 0 327 327" fill="none" xmlns="http://www.w3.org/2000/svg">
<g clip-path="url(#clip0_113_821)">
<path d="M327 250.088H0V250.252H327V250.088Z" fill="#EBEBEB"/>
<path d="M294.235 260.615H280.057V260.779H294.235V260.615Z" fill="#EBEBEB"/>
<path d="M225.412 257.222H203.105V257.386H225.412V257.222Z" fill="#EBEBEB"/>
<path d="M288.487 254.542H259.367V254.706H288.487V254.542Z" fill="#EBEBEB"/>
<path d="M113.152 257.84H105.868V258.003H113.152V257.84Z" fill="#EBEBEB"/>
<path d="M100.045 257.84H74.9386V258.003H100.045V257.84Z" fill="#EBEBEB"/>
<path d="M61.4773 255.078H43.3648V255.242H61.4773V255.078Z" fill="#EBEBEB"/>
<path d="M155.007 220.921H28.7205C26.6623 220.921 24.9874 219.246 24.9874 217.188V39.6716C24.9874 37.6135 26.6623 35.9386 28.7205 35.9386H155.007C157.065 35.9386 158.74 37.6135 158.74 39.6716V217.188C158.74 219.246 157.065 220.921 155.007 220.921ZM28.7205 36.1028C26.7519 36.1028 25.1509 37.7038 25.1509 39.6723V217.189C25.1509 219.157 26.7519 220.758 28.7205 220.758H155.007C156.975 220.758 158.576 219.157 158.576 217.189V39.6716C158.576 37.7038 156.975 36.1021 155.007 36.1021L28.7205 36.1028Z" fill="#EBEBEB"/>
<path d="M296.465 220.921H170.179C168.12 220.921 166.446 219.246 166.446 217.188V39.6716C166.446 37.6135 168.121 35.9386 170.179 35.9386H296.465C298.523 35.9386 300.198 37.6135 300.198 39.6716V217.188C300.198 219.246 298.523 220.921 296.465 220.921ZM170.179 36.1028C168.211 36.1028 166.61 37.7038 166.61 39.6723V217.189C166.61 219.157 168.211 220.758 170.179 220.758H296.465C298.433 220.758 300.034 219.157 300.034 217.189V39.6716C300.034 37.7038 298.433 36.1021 296.465 36.1021L170.179 36.1028Z" fill="#EBEBEB"/>
<path d="M141.311 131.374L141.605 122.78L136.329 121.056C136.112 118.12 135.621 115.22 134.922 112.426L139.394 109.128L136.356 101.056L130.825 101.501C129.506 98.8913 127.957 96.4081 126.221 94.0785L129.086 89.2958L123.195 83.0103L118.249 85.5425C116.022 83.6492 113.674 81.9351 111.16 80.4191L111.962 74.9294L104.115 71.3684L100.52 75.5815C97.7808 74.6927 94.9431 74.0282 92.0073 73.5874L90.6706 68.2063L82.0534 67.9114L80.3517 73.1885C77.3924 73.4272 74.5154 73.8961 71.7222 74.5952L68.4012 70.1448L60.3295 73.1604L60.7756 78.6925C58.1648 80.0332 55.6822 81.5819 53.3527 83.3189L48.5929 80.4544L42.2844 86.3221L44.816 91.2899C42.924 93.4952 41.2085 95.8666 39.7141 98.3806L34.2258 97.5572L30.6425 105.403L34.8778 108.998C33.9897 111.738 33.301 114.598 32.8838 117.512L27.4791 118.87L27.1848 127.464L32.4835 129.19C32.7 132.148 33.1918 135.026 33.8909 137.819L29.4195 141.116L32.4574 149.189L37.9889 148.742C39.3074 151.353 40.8567 153.836 42.5931 156.165L39.7272 160.948L45.6191 167.234L50.564 164.701C52.7693 166.594 55.14 168.31 57.6534 169.826L56.8293 175.314L64.676 178.875L68.2939 174.662C71.0329 175.551 73.8706 176.216 76.8071 176.657L78.1438 182.038L86.7609 182.333L88.4633 177.055C91.422 176.817 94.2989 176.348 97.0922 175.649L100.39 180.098L108.462 177.082L108.038 171.552C110.65 170.211 113.109 168.661 115.461 166.924L120.222 169.79L126.529 163.922L123.998 158.954C125.89 156.749 127.606 154.377 129.1 151.863L134.589 152.687L138.172 144.841L133.936 141.246C134.825 138.507 135.512 135.67 135.93 132.733L141.311 131.374ZM83.2385 159.216C64.4177 158.571 49.6798 142.787 50.3246 123.966C50.9701 105.122 66.7538 90.3854 85.5746 91.0303C104.395 91.6751 119.133 107.457 118.488 126.301C117.843 145.123 102.059 159.86 83.2385 159.216Z" fill="#EBEBEB"/>
<path d="M288.386 102.955L290.553 100.931L289.687 99.2236C290.35 98.4545 290.938 97.6278 291.449 96.7763L293.343 97.0628L294.571 94.3539L293.113 93.1139C293.428 92.1558 293.656 91.1728 293.8 90.1814L295.666 89.7138L295.762 86.7446L293.938 86.156C293.857 85.1515 293.702 84.1606 293.459 83.1783L294.993 82.0351L293.948 79.2537L292.044 79.4041C291.593 78.5192 291.063 77.6651 290.455 76.8424L291.441 75.2041L289.412 73.0309L287.71 73.902C286.929 73.2382 286.114 72.6515 285.262 72.1408L285.538 70.2455L282.834 69.0127L281.594 70.4705C280.631 70.1605 279.648 69.9329 278.656 69.7883L278.193 67.929L275.224 67.8218L274.63 69.6503C273.631 69.7269 272.635 69.8864 271.657 70.1356L270.52 68.5968L267.733 69.636L267.889 71.5456C267.004 71.9969 266.139 72.5266 265.326 73.1355L263.678 72.1486L261.51 74.1728L262.382 75.8856C261.713 76.6599 261.131 77.4813 260.62 78.3328L258.726 78.0464L257.497 80.7559L258.955 81.9959C258.64 82.954 258.412 83.937 258.268 84.9284L256.403 85.396L256.307 88.3659L258.13 88.9538C258.206 89.9531 258.366 90.9498 258.609 91.9321L257.07 93.0694L258.115 95.8509L260.025 95.7057C260.476 96.5906 261.006 97.444 261.614 98.2681L260.628 99.9063L262.658 102.08L264.359 101.208C265.139 101.871 265.955 102.458 266.806 102.969L266.526 104.858L269.23 106.091L270.475 104.639C271.439 104.949 272.416 105.171 273.413 105.321L273.876 107.18L276.845 107.287L277.439 105.459C278.438 105.382 279.434 105.223 280.412 104.974L281.549 106.513L284.336 105.474L284.18 103.564C285.064 103.113 285.924 102.589 286.742 101.975L288.386 102.955ZM272.941 90.443C271.347 88.7354 271.438 86.0572 273.146 84.4628C274.855 82.8664 277.533 82.9579 279.128 84.6662C280.722 86.3738 280.631 89.0519 278.921 90.6483C277.214 92.2428 274.535 92.1506 272.941 90.443Z" fill="#EBEBEB"/>
<path d="M209.273 191.188L202.51 186.517C202.508 186.512 202.508 186.506 202.506 186.501C201.837 184.043 200.914 181.679 199.786 179.456L201.518 172.655L191.708 162.149L184.803 163.413C182.664 162.137 180.369 161.055 177.966 160.22C177.961 160.219 177.954 160.218 177.949 160.215L173.75 153.145L159.385 152.653L154.714 159.416C154.706 159.418 154.696 159.42 154.687 159.422C152.233 160.091 149.87 161.012 147.65 162.139L140.853 160.407L130.347 170.217L131.609 177.109C131.608 177.112 131.606 177.112 131.605 177.115C130.302 179.278 129.245 181.573 128.41 183.978L121.342 188.175L120.849 202.541L127.618 207.215C128.287 209.689 129.181 212.049 130.33 214.29C130.331 214.292 130.331 214.292 130.332 214.293L128.604 221.072L138.414 231.577L145.276 230.322C147.442 231.602 149.74 232.685 152.173 233.522C152.175 233.523 152.177 233.523 152.179 233.523L156.371 240.582L170.736 241.075L175.403 234.316C177.887 233.649 180.253 232.727 182.5 231.597C182.5 231.597 182.501 231.597 182.502 231.596L189.268 233.32L199.774 223.51L198.513 216.617C199.815 214.454 200.872 212.158 201.707 209.753L201.708 209.752L208.779 205.552L209.273 191.188ZM164.505 213.025C155.575 212.719 148.6 205.222 148.905 196.318C149.211 187.388 156.682 180.412 165.612 180.717C174.541 181.023 181.518 188.495 181.212 197.424C180.907 206.329 173.435 213.331 164.505 213.025Z" fill="#EBEBEB"/>
<path d="M224.68 150.39C224.665 150.39 224.649 150.39 224.633 150.389L213.308 150.001C212.838 149.986 212.408 149.731 212.168 149.327L209.118 144.191C207.497 143.603 205.899 142.862 204.355 141.982L199.446 142.88C198.983 142.968 198.509 142.809 198.188 142.464L190.454 134.182C190.133 133.838 190.009 133.355 190.125 132.899L191.36 128.053C190.61 126.518 189.982 124.878 189.49 123.167L184.565 119.766C184.178 119.499 183.953 119.052 183.969 118.583L184.357 107.257C184.372 106.787 184.627 106.357 185.032 106.117L190.176 103.063C190.786 101.392 191.526 99.8024 192.38 98.3224L191.478 93.3958C191.394 92.9334 191.55 92.4586 191.894 92.1381L200.177 84.4033C200.521 84.0815 201.005 83.9586 201.461 84.0743L206.323 85.3136C207.896 84.5485 209.531 83.918 211.195 83.436L214.594 78.5147C214.861 78.1275 215.299 77.8881 215.778 77.9195L227.103 78.308C227.573 78.3237 228.003 78.5781 228.243 78.9829L231.298 84.1273C232.921 84.7218 234.507 85.4614 236.025 86.3326L240.965 85.4274C241.429 85.3431 241.902 85.4994 242.223 85.8434L249.958 94.1269C250.279 94.471 250.402 94.9549 250.286 95.4107L249.046 100.275C249.812 101.849 250.442 103.482 250.925 105.145L255.846 108.543C256.233 108.81 256.458 109.257 256.442 109.727L256.054 121.053C256.038 121.523 255.783 121.953 255.379 122.193L250.233 125.249C249.623 126.919 248.884 128.508 248.031 129.986L248.933 134.914C249.018 135.377 248.861 135.851 248.517 136.172L240.234 143.905C239.891 144.227 239.408 144.351 238.951 144.234L234.111 143C232.516 143.771 230.872 144.401 229.214 144.877L225.818 149.795C225.559 150.168 225.134 150.39 224.68 150.39ZM214.157 147.267L223.973 147.604L227.224 142.896C227.41 142.628 227.686 142.433 228.001 142.348C229.81 141.862 231.604 141.174 233.335 140.303C233.338 140.302 233.341 140.301 233.344 140.299C233.632 140.157 233.969 140.113 234.297 140.199L238.9 141.371L246.079 134.668L245.221 129.977C245.16 129.646 245.223 129.304 245.396 129.015C246.343 127.444 247.146 125.72 247.783 123.892C247.888 123.567 248.109 123.295 248.398 123.125L253.318 120.203L253.655 110.386L248.944 107.132C248.697 106.962 248.513 106.716 248.418 106.433C248.406 106.398 248.396 106.361 248.387 106.323C247.894 104.519 247.209 102.747 246.35 101.055C246.198 100.756 246.161 100.413 246.243 100.088L247.423 95.4591L240.719 88.2789L236.017 89.1395C235.688 89.2004 235.348 89.1382 235.061 88.9669C233.426 87.9911 231.7 87.1847 229.93 86.5693C229.83 86.5347 229.729 86.4882 229.642 86.4353C229.451 86.3175 229.292 86.156 229.178 85.9637L226.253 81.0398L216.437 80.7029L213.184 85.4144C212.99 85.6949 212.7 85.8924 212.371 85.9716C210.555 86.4693 208.788 87.152 207.104 88.0068C206.805 88.1585 206.461 88.1965 206.138 88.1134L201.51 86.9336L194.332 93.6378L195.19 98.3289C195.245 98.6232 195.201 98.9273 195.067 99.1948C195.048 99.2327 195.027 99.2693 195.005 99.306C194.056 100.883 193.252 102.613 192.615 104.446C192.508 104.753 192.296 105.013 192.016 105.18L187.093 108.104L186.757 117.919L191.472 121.176C191.741 121.361 191.935 121.637 192.021 121.952C192.529 123.833 193.213 125.619 194.055 127.261C194.103 127.355 194.141 127.454 194.167 127.557C194.222 127.779 194.222 128.011 194.165 128.233L192.99 132.846L199.693 140.025L204.361 139.171C204.689 139.111 205.026 139.172 205.312 139.341C206.977 140.325 208.712 141.131 210.471 141.737C210.789 141.838 211.064 142.053 211.239 142.348L214.157 147.267ZM220.22 134.864C219.978 134.864 219.737 134.859 219.494 134.851C208.084 134.46 199.119 124.86 199.511 113.45C199.902 102.041 209.517 93.0792 220.911 93.4664C232.321 93.8575 241.285 103.458 240.894 114.868C240.705 120.388 238.376 125.508 234.337 129.283C230.472 132.897 225.482 134.864 220.22 134.864ZM220.195 96.2165C210.583 96.2165 202.603 103.865 202.271 113.545C201.932 123.432 209.701 131.752 219.588 132.09C224.38 132.251 228.948 130.542 232.452 127.266C235.953 123.993 237.971 119.556 238.134 114.773C238.473 104.886 230.704 96.5657 220.817 96.2269C220.609 96.2204 220.401 96.2165 220.195 96.2165Z" fill="#EBEBEB"/>
<path d="M250.769 68.8812L246.077 67.6216L244.818 62.9305L246.655 61.0934L248.593 65.1064L252.605 67.0448L250.769 68.8812Z" fill="#E0E0E0"/>
<path d="M251.06 65.7407C251.915 64.886 251.915 63.4929 251.06 62.6382C250.205 61.7834 248.819 61.7899 247.964 62.6447L250.297 59.1438L253.428 60.7259L254.114 64.0148L251.06 65.7407Z" fill="#E0E0E0"/>
<path d="M246.285 61.4636L249.723 58.0255L254.414 59.2851L255.674 63.9769L252.236 67.415L247.544 66.1547L246.285 61.4636ZM252.527 64.2745C253.382 63.4197 253.382 62.0267 252.527 61.1719C251.672 60.3171 250.286 60.3236 249.431 61.1784C248.576 62.0332 248.576 63.4138 249.431 64.2679C250.286 65.1227 251.672 65.1292 252.527 64.2745Z" fill="#F0F0F0"/>
<path d="M59.0046 194.047L61.5218 193.371L62.198 190.854L61.2125 189.868L60.1726 192.022L58.019 193.061L59.0046 194.047Z" fill="#E0E0E0"/>
<path d="M58.8483 192.362C58.3899 191.903 58.3899 191.156 58.8483 190.697C59.3068 190.238 60.051 190.241 60.5095 190.7L59.2571 188.821L57.5776 189.67L57.2094 191.434L58.8483 192.362Z" fill="#E0E0E0"/>
<path d="M61.4113 190.067L59.5663 188.222L57.0491 188.898L56.3729 191.416L58.2178 193.261L60.735 192.585L61.4113 190.067ZM58.0608 191.575C57.6024 191.116 57.6024 190.369 58.0608 189.91C58.5193 189.451 59.2635 189.455 59.722 189.913C60.1805 190.372 60.1805 191.113 59.722 191.571C59.2642 192.03 58.5199 192.033 58.0608 191.575Z" fill="#F0F0F0"/>
<path d="M49.9414 56.0229L52.0309 58.1125C52.575 58.6566 53.4651 58.6566 54.0092 58.1125C54.5534 57.5683 54.5534 56.6783 54.0092 56.1341L51.9197 54.0446C51.3756 53.5005 50.4855 53.5005 49.9414 54.0446C49.3972 54.5887 49.3972 55.4795 49.9414 56.0229Z" fill="#F0F0F0"/>
<path d="M48.4692 50.8191C50.0793 50.2409 51.8249 50.997 52.3677 52.5083C52.9105 54.0197 52.0453 55.7136 50.4351 56.2924C48.825 56.8705 47.0794 56.1145 46.5366 54.6031C45.9938 53.0917 46.859 51.3979 48.4692 50.8191Z" fill="#E0E0E0"/>
<path d="M46.1923 54.2543L46.4951 55.0975L52.7127 52.8645L52.4099 52.0213L46.1923 54.2543Z" fill="#F0F0F0"/>
<path d="M163.5 279.625C233.532 279.625 290.303 276.309 290.303 272.22C290.303 268.13 233.532 264.814 163.5 264.814C93.4684 264.814 36.6966 268.13 36.6966 272.22C36.6966 276.309 93.4684 279.625 163.5 279.625Z" fill="#F5F5F5"/>
<path d="M56.7123 78.9025C56.0577 76.0229 56.35 73.5985 57.59 71.628C58.83 69.6589 60.8822 68.3489 63.7461 67.6975C66.6825 67.0298 69.1239 67.3038 71.0709 68.5196C73.0178 69.7347 74.3141 71.7621 74.9596 74.6024C75.4285 76.6645 75.4658 78.4342 75.0721 79.9116C74.6777 81.3897 73.9086 82.6447 72.7641 83.6767C71.6189 84.7094 70.0676 85.4471 68.1102 85.8924C66.1208 86.345 64.4021 86.4026 62.9541 86.0657C61.5061 85.7283 60.221 84.9657 59.0988 83.7774C57.9765 82.5897 57.1806 80.9652 56.7123 78.9025ZM62.1693 77.688C62.5741 79.4695 63.1961 80.6735 64.0352 81.3007C64.8736 81.9292 65.8624 82.1123 67.0024 81.8533C68.1737 81.5878 68.9938 81.0005 69.462 80.0928C69.9303 79.185 69.9408 77.7436 69.4915 75.7705C69.1141 74.11 68.5033 72.9727 67.659 72.3579C66.8147 71.7445 65.8193 71.5679 64.6722 71.8288C63.5728 72.0787 62.7788 72.6686 62.2896 73.5979C61.8004 74.5279 61.7605 75.8908 62.1693 77.688Z" fill="#263238"/>
<path d="M77.5599 76.7449C77.1165 74.796 77.4095 73.0394 78.4382 71.4763C79.4663 69.9133 81.1 68.8773 83.3386 68.3692C85.8977 67.7871 87.9997 68.0893 89.6451 69.2769C90.9675 70.2337 91.8282 71.5862 92.2258 73.335C92.6725 75.3016 92.3874 77.0595 91.3684 78.6115C90.3502 80.1634 88.6896 81.2013 86.3869 81.7245C84.3334 82.1915 82.5538 82.0482 81.049 81.2929C79.1988 80.3557 78.036 78.8397 77.5599 76.7449ZM82.4675 75.6174C82.7265 76.7561 83.1483 77.5461 83.7343 77.9875C84.3196 78.4283 84.9612 78.5689 85.659 78.41C86.3647 78.2491 86.8833 77.8489 87.2142 77.208C87.5451 76.5677 87.5759 75.6534 87.3064 74.4671C87.0547 73.3598 86.6387 72.5868 86.058 72.1493C85.4772 71.7118 84.85 71.5692 84.1764 71.7229C83.4622 71.8851 82.9351 72.2945 82.595 72.9498C82.2543 73.6044 82.2118 74.4939 82.4675 75.6174Z" fill="#263238"/>
<path d="M97.1746 84.0822L93.1636 66.4392L97.7488 65.3961L98.1784 67.2855C98.6317 66.3476 99.0908 65.6786 99.5564 65.277C100.185 64.7382 100.932 64.3693 101.799 64.1731C103.508 63.784 104.978 64.1378 106.21 65.2326C107.442 66.328 108.278 67.8381 108.715 69.7641C109.198 71.8903 109.058 73.6286 108.293 74.9798C107.529 76.3303 106.368 77.1831 104.812 77.5369C104.058 77.7083 103.341 77.7364 102.66 77.6206C101.98 77.5049 101.338 77.2511 100.734 76.8568L102.121 82.9579L97.1746 84.0822ZM99.5348 71.7497C99.7644 72.7608 100.148 73.4625 100.684 73.8556C101.22 74.2486 101.813 74.3703 102.463 74.2231C103.033 74.0936 103.458 73.7503 103.735 73.1937C104.013 72.6365 104.025 71.7968 103.77 70.6732C103.535 69.6379 103.161 68.9238 102.65 68.53C102.138 68.135 101.594 68.0042 101.016 68.135C100.391 68.2776 99.9246 68.6412 99.6186 69.2246C99.3125 69.8093 99.2844 70.6503 99.5348 71.7497Z" fill="#263238"/>
<path d="M110.811 72.1355L115.568 70.5725C115.9 71.1042 116.275 71.4541 116.693 71.6215C117.11 71.7876 117.62 71.8027 118.222 71.666C118.879 71.5162 119.357 71.2605 119.655 70.8975C119.888 70.6255 119.969 70.3338 119.898 70.0205C119.818 69.668 119.572 69.4371 119.159 69.3292C118.863 69.2534 118.123 69.2449 116.939 69.3031C115.17 69.394 113.927 69.3874 113.207 69.2861C112.487 69.1834 111.833 68.8839 111.243 68.3855C110.653 67.8878 110.27 67.2534 110.096 66.4843C109.905 65.6426 109.985 64.8624 110.335 64.1417C110.686 63.421 111.257 62.8128 112.047 62.317C112.837 61.8213 113.954 61.4093 115.398 61.081C116.922 60.7344 118.074 60.5957 118.853 60.6624C119.632 60.7304 120.32 60.9535 120.916 61.3321C121.513 61.7114 122.067 62.2811 122.577 63.043L118.035 64.5563C117.822 64.1737 117.553 63.9187 117.229 63.7905C116.785 63.6205 116.29 63.5976 115.745 63.7225C115.191 63.8481 114.81 64.0377 114.602 64.2915C114.394 64.5452 114.322 64.8127 114.386 65.0933C114.457 65.4059 114.671 65.6054 115.028 65.6923C115.385 65.7806 116.116 65.7649 117.22 65.6492C118.891 65.4641 120.161 65.4445 121.03 65.5929C121.899 65.7407 122.613 66.0717 123.173 66.585C123.732 67.0984 124.095 67.7197 124.261 68.4496C124.429 69.1873 124.369 69.9551 124.083 70.753C123.796 71.5515 123.22 72.2657 122.355 72.8968C121.49 73.5266 120.231 74.0302 118.579 74.4069C116.244 74.9379 114.505 74.9817 113.363 74.5416C112.221 74.1008 111.37 73.299 110.811 72.1355Z" fill="#263238"/>
<path d="M126.777 55.9602L132.145 55.9301L132.169 60.0522L131.179 68.3391L127.859 68.3574L126.8 60.0823L126.777 55.9602ZM127.039 69.6209L132.05 69.5928L132.075 74.023L127.065 74.0511L127.039 69.6209Z" fill="#263238"/>
<path d="M145.484 199.366C146.392 184.714 144.721 158.081 172.261 161.607C201.779 165.385 193.334 199.902 193.334 199.902L145.484 199.366Z" fill="#263238"/>
<path d="M164.49 190.559C171.127 190.559 176.507 185.179 176.507 178.542C176.507 171.905 171.127 166.525 164.49 166.525C157.853 166.525 152.473 171.905 152.473 178.542C152.473 185.179 157.853 190.559 164.49 190.559Z" fill="white"/>
<path d="M166.068 166.544C160.376 165.572 154.29 169.768 153.69 174.019L176.258 176.094C175.462 171.248 170.585 167.315 166.068 166.544Z" fill="#263238"/>
<path d="M173.687 178.243C173.525 181.385 171.813 183.851 169.862 183.75C167.911 183.65 166.461 181.022 166.622 177.88C166.783 174.738 168.495 172.273 170.446 172.373C172.397 172.473 173.848 175.101 173.687 178.243Z" fill="#263238"/>
<path d="M164.49 191.213C157.503 191.213 151.818 185.529 151.818 178.542C151.818 171.555 157.503 165.871 164.49 165.871C171.477 165.871 177.161 171.555 177.161 178.542C177.161 185.529 171.477 191.213 164.49 191.213ZM164.49 167.179C158.224 167.179 153.126 172.276 153.126 178.542C153.126 184.808 158.224 189.905 164.49 189.905C170.756 189.905 175.853 184.808 175.853 178.542C175.853 172.276 170.755 167.179 164.49 167.179Z" fill="#2873BA"/>
<path opacity="0.3" d="M189.977 198.997C189.952 198.997 189.926 198.994 189.9 198.988C189.725 198.945 189.616 198.769 189.659 198.593C189.68 198.505 191.764 189.637 189.6 180.671C189.557 180.496 189.665 180.32 189.841 180.276C190.014 180.237 190.193 180.342 190.236 180.518C192.438 189.641 190.317 198.656 190.294 198.746C190.258 198.897 190.125 198.997 189.977 198.997Z" fill="white"/>
<path opacity="0.3" d="M188.154 175.768C188.03 175.768 187.912 175.698 187.857 175.577C187.016 173.742 185.973 172.058 184.756 170.57C184.641 170.43 184.662 170.224 184.802 170.11C184.941 169.995 185.147 170.015 185.262 170.156C186.514 171.687 187.587 173.419 188.451 175.305C188.527 175.469 188.455 175.664 188.29 175.738C188.246 175.759 188.2 175.768 188.154 175.768Z" fill="white"/>
<path d="M84.1926 268.086C84.1115 268.086 84.0304 268.086 83.9493 268.083C82.1443 268.033 80.7212 266.53 80.7702 264.724C80.8193 262.919 82.3065 261.523 84.1285 261.546C84.1488 261.546 84.1697 261.546 84.1913 261.546C86.0807 261.546 90.626 259.251 100.134 244.261C100.645 243.457 101.482 242.914 102.425 242.777C103.37 242.643 104.325 242.922 105.045 243.548C116.778 253.779 129.213 260.147 129.337 260.21C130.946 261.028 131.589 262.996 130.772 264.606C129.954 266.216 127.987 266.86 126.378 266.042C125.884 265.791 115.015 260.234 103.62 250.904C95.65 262.885 89.7359 268.086 84.1926 268.086Z" fill="#263238"/>
<path d="M104.424 242.961C104.331 242.961 104.238 242.954 104.144 242.941C103.072 242.788 102.326 241.794 102.48 240.721C102.945 237.466 102.369 225.27 98.2451 215.787C97.8691 214.923 98.1608 213.914 98.9397 213.383C107.898 207.277 126.981 206.548 127.789 206.519C128.866 206.496 129.78 207.329 129.818 208.412C129.856 209.495 129.008 210.404 127.926 210.441C127.749 210.447 111.066 211.087 102.493 215.805C106.145 225.247 106.973 237.019 106.364 241.276C106.224 242.255 105.385 242.961 104.424 242.961Z" fill="#263238"/>
<path d="M107.72 240.421C106.416 237.343 100.534 237.693 97.081 240.331C95.2355 241.74 92.7378 245.982 92.4749 247.519C92.2127 249.056 93.2774 250.449 95.106 250.29C97.361 250.095 100.456 246.818 100.456 246.818C98.3969 248.838 101.054 250.263 105.019 247.342C107.219 245.722 109.181 243.867 107.72 240.421Z" fill="#2873BA"/>
<path d="M220.206 200.229C220.176 200.229 220.146 200.225 220.115 200.216C219.942 200.167 219.841 199.985 219.892 199.812C220.763 196.777 221.714 194.923 222.966 193.893C222.774 193.241 222.796 192.493 223.066 191.761C223.329 191.049 223.837 190.341 224.61 189.796C224.232 189.387 224.09 188.851 224.225 188.238C224.373 187.557 224.868 186.819 225.621 186.174C225.325 185.833 225.253 185.463 225.251 185.188C225.234 183.238 228.852 180.267 232.943 179.708C233.122 179.675 233.287 179.808 233.311 179.988C233.335 180.167 233.21 180.331 233.031 180.356C229.148 180.887 225.892 183.697 225.905 185.183C225.907 185.423 225.996 185.617 226.141 185.773C227.614 184.748 229.787 184.089 232.212 184.555C234.219 184.939 235.035 185.363 234.941 185.972C234.763 187.119 230.488 187.355 227.623 187.015C226.973 186.937 226.498 186.784 226.151 186.592C225.439 187.175 224.982 187.829 224.863 188.378C224.757 188.867 224.915 189.209 225.187 189.447C226.401 188.822 228.11 188.56 230.364 189.058C233.331 189.713 233.442 190.075 233.509 190.29C233.556 190.444 233.518 190.602 233.403 190.723C232.778 191.385 228.233 191.071 225.949 190.512C225.652 190.439 225.389 190.34 225.162 190.217C224.406 190.693 223.919 191.337 223.679 191.988C223.487 192.509 223.443 193.029 223.531 193.494C223.649 193.424 223.769 193.36 223.892 193.301C225.245 192.659 226.882 192.766 228.898 193.628C230.235 194.201 230.88 194.708 230.927 195.224C230.942 195.376 230.912 195.668 230.555 195.905C229.557 196.568 226.062 196.467 224.245 195.5C223.816 195.271 223.477 194.934 223.239 194.528C222.17 195.504 221.308 197.252 220.521 199.992C220.478 200.136 220.348 200.229 220.206 200.229ZM223.754 194.127C223.934 194.462 224.203 194.738 224.551 194.923C226.027 195.708 228.93 195.888 230.02 195.449C230.242 195.358 230.275 195.283 230.275 195.283C230.275 195.281 230.239 194.915 228.64 194.231C226.806 193.447 225.345 193.337 224.172 193.892C224.03 193.96 223.89 194.038 223.754 194.127ZM225.934 189.831C225.99 189.848 226.047 189.863 226.103 189.877C228.412 190.442 231.53 190.539 232.599 190.363C232.268 190.223 231.592 189.999 230.222 189.697C228.408 189.298 226.99 189.423 225.934 189.831ZM226.759 186.155C227.054 186.264 227.388 186.329 227.699 186.366C230.958 186.752 233.835 186.296 234.265 185.89C234.154 185.789 233.715 185.509 232.088 185.198C229.941 184.789 228.065 185.327 226.759 186.155Z" fill="#263238"/>
<path d="M135.069 266.994C135.5 266.856 135.355 266.44 134.874 266.44H126.02C109.159 264.655 97.3786 267.048 104.802 267.612C112.225 268.177 104.28 268.058 98.8586 270.109C93.4376 272.159 139.18 272.676 143.34 270.109C147.177 267.74 129.094 268.909 135.069 266.994Z" fill="#263238"/>
<path d="M198.469 269.604L121.426 267.05L118.229 192.349L209.207 194.383L198.469 269.604Z" fill="#2873BA"/>
<path d="M145.484 268.175C145.315 268.175 145.172 268.046 145.158 267.874L138.982 192.847C138.967 192.667 139.101 192.509 139.282 192.494C139.467 192.484 139.62 192.613 139.634 192.793L145.81 267.821C145.824 268.001 145.691 268.159 145.51 268.173C145.501 268.174 145.492 268.175 145.484 268.175Z" fill="#263238"/>
<path d="M198.469 269.604L219.176 266.451L225.698 196.99L209.207 194.383L198.469 269.604Z" fill="#2873BA"/>
<path opacity="0.2" d="M198.469 269.604L219.176 266.451L225.698 196.99L209.207 194.383L198.469 269.604Z" fill="black"/>
<path d="M128.01 252.651L126.111 208.27C125.913 203.637 129.671 199.801 134.307 199.905L191.897 201.193C196.707 201.3 200.341 205.586 199.661 210.349L193.276 255.076C192.697 259.13 189.159 262.098 185.067 261.962L135.761 260.327C131.568 260.188 128.19 256.842 128.01 252.651Z" fill="#263238"/>
<path d="M134.231 213.523L143.142 213.807L143.068 216.104L137.49 215.927L137.436 217.637L142.61 217.802L142.541 219.996L137.366 219.832L137.299 221.953L143.038 222.135L142.961 224.572L133.889 224.283L134.231 213.523Z" fill="white"/>
<path d="M144.796 224.63L145.138 213.87L150.679 214.047C151.706 214.08 152.489 214.193 153.026 214.386C153.564 214.58 153.991 214.92 154.309 215.408C154.626 215.896 154.774 216.482 154.752 217.167C154.733 217.764 154.589 218.275 154.321 218.7C154.053 219.125 153.691 219.465 153.237 219.72C152.948 219.882 152.555 220.011 152.056 220.108C152.448 220.253 152.732 220.395 152.909 220.532C153.028 220.624 153.199 220.819 153.422 221.115C153.645 221.411 153.794 221.639 153.867 221.798L155.378 224.967L151.621 224.848L149.949 221.503C149.737 221.071 149.546 220.788 149.374 220.655C149.139 220.481 148.87 220.389 148.567 220.379L148.273 220.37L148.134 224.737L144.796 224.63ZM148.339 218.337L149.74 218.381C149.892 218.386 150.187 218.346 150.626 218.263C150.848 218.225 151.031 218.119 151.176 217.942C151.321 217.766 151.398 217.56 151.405 217.325C151.416 216.978 151.315 216.707 151.1 216.515C150.886 216.322 150.476 216.216 149.869 216.196L148.408 216.15L148.339 218.337Z" fill="white"/>
<path d="M156.487 225.002L156.829 214.243L162.37 214.419C163.398 214.452 164.181 214.565 164.718 214.759C165.255 214.952 165.682 215.292 166 215.78C166.318 216.268 166.466 216.855 166.444 217.539C166.425 218.136 166.281 218.647 166.013 219.072C165.744 219.497 165.383 219.838 164.929 220.092C164.64 220.254 164.246 220.384 163.748 220.48C164.14 220.626 164.424 220.767 164.601 220.904C164.72 220.996 164.891 221.191 165.115 221.487C165.338 221.783 165.486 222.011 165.559 222.17L167.07 225.34L163.313 225.22L161.641 221.875C161.429 221.443 161.237 221.16 161.065 221.027C160.83 220.853 160.561 220.761 160.258 220.751L159.964 220.742L159.826 225.109L156.487 225.002ZM160.03 218.709L161.432 218.753C161.584 218.758 161.879 218.719 162.317 218.634C162.539 218.597 162.722 218.49 162.867 218.314C163.013 218.137 163.089 217.931 163.096 217.696C163.108 217.349 163.006 217.079 162.792 216.886C162.577 216.693 162.166 216.587 161.56 216.568L160.1 216.521L160.03 218.709Z" fill="white"/>
<path d="M167.631 219.979C167.687 218.222 168.219 216.87 169.229 215.923C170.239 214.976 171.617 214.53 173.364 214.585C175.154 214.642 176.519 215.167 177.457 216.159C178.395 217.151 178.837 218.513 178.782 220.246C178.742 221.503 178.497 222.528 178.049 223.319C177.599 224.111 176.968 224.718 176.154 225.14C175.34 225.563 174.336 225.754 173.142 225.716C171.929 225.678 170.931 225.453 170.148 225.041C169.365 224.629 168.74 223.997 168.272 223.144C167.805 222.291 167.591 221.236 167.631 219.979ZM170.955 220.099C170.92 221.185 171.097 221.972 171.486 222.459C171.874 222.947 172.416 223.202 173.111 223.224C173.825 223.247 174.386 223.032 174.792 222.58C175.198 222.127 175.42 221.299 175.459 220.095C175.491 219.083 175.31 218.336 174.917 217.856C174.523 217.375 173.976 217.124 173.277 217.102C172.606 217.08 172.06 217.301 171.639 217.762C171.218 218.224 170.989 219.003 170.955 220.099Z" fill="white"/>
<path d="M180.443 225.764L180.785 215.004L186.327 215.181C187.354 215.214 188.137 215.327 188.674 215.52C189.211 215.714 189.638 216.054 189.956 216.542C190.274 217.03 190.422 217.617 190.4 218.301C190.381 218.898 190.237 219.409 189.969 219.834C189.7 220.259 189.339 220.599 188.885 220.854C188.595 221.016 188.202 221.146 187.704 221.242C188.096 221.387 188.38 221.529 188.557 221.666C188.676 221.758 188.847 221.953 189.07 222.249C189.293 222.545 189.442 222.773 189.515 222.932L191.025 226.102L187.269 225.982L185.597 222.637C185.385 222.205 185.193 221.922 185.021 221.789C184.786 221.615 184.518 221.523 184.214 221.513L183.92 221.504L183.782 225.871L180.443 225.764ZM183.986 219.471L185.388 219.515C185.54 219.52 185.835 219.48 186.274 219.396C186.495 219.359 186.678 219.252 186.824 219.076C186.969 218.899 187.045 218.693 187.052 218.458C187.064 218.111 186.962 217.841 186.748 217.648C186.533 217.455 186.123 217.349 185.516 217.329L184.056 217.283L183.986 219.471Z" fill="white"/>
<path d="M185.735 244.045C185.503 244.045 185.271 243.951 185.101 243.766L179.502 237.639L173.461 243.158C173.111 243.478 172.568 243.453 172.249 243.104L166.65 236.976L160.609 242.495C160.259 242.815 159.715 242.79 159.396 242.441L153.797 236.314L147.756 241.834C147.589 241.987 147.363 242.068 147.139 242.058C146.911 242.047 146.697 241.947 146.544 241.779L140.945 235.652L134.904 241.171C134.554 241.491 134.011 241.465 133.691 241.117C133.372 240.767 133.396 240.223 133.746 239.904L140.42 233.805C140.77 233.484 141.313 233.509 141.634 233.859L147.232 239.987L153.273 234.467C153.441 234.313 153.666 234.233 153.891 234.243C154.118 234.253 154.332 234.353 154.486 234.521L160.085 240.648L166.126 235.129C166.475 234.809 167.019 234.834 167.338 235.184L172.937 241.311L178.978 235.792C179.328 235.471 179.871 235.496 180.191 235.846L186.369 242.607C186.689 242.957 186.664 243.501 186.314 243.82C186.149 243.971 185.942 244.045 185.735 244.045Z" fill="white"/>
<path d="M82.2405 271.192L78.1477 269.24L74.4965 251.473L76.4781 249.29L82.2405 271.192Z" fill="#2873BA"/>
<path d="M82.2405 271.192L87.6719 268.019L83.0155 253.381L76.4781 249.29L82.2405 271.192Z" fill="#2873BA"/>
<path opacity="0.2" d="M82.2405 271.192L87.6719 268.019L83.0155 253.381L76.4781 249.29L82.2405 271.192Z" fill="black"/>
<path d="M171.315 274.422C171.16 274.422 171.009 274.419 170.863 274.415C169.058 274.365 167.634 272.862 167.684 271.056C167.733 269.252 169.224 267.833 171.042 267.878C176.08 268.043 186.742 264.948 192.833 259.035C193.209 258.669 193.668 258.4 194.171 258.25C204.496 255.151 208.339 261.411 208.498 261.679L202.869 265.008C202.869 265.008 202.89 265.053 202.944 265.128C202.881 265.041 201.42 263.14 196.762 264.317C189.119 271.294 177.386 274.422 171.315 274.422Z" fill="#263238"/>
<path d="M170.952 278.769L159.041 278.018L158.101 256.059L174.109 256.658L170.952 278.769Z" fill="#2873BA"/>
<path d="M170.952 278.769L173.736 275.998L175.462 262.306L174.109 256.658L170.952 278.769Z" fill="#2873BA"/>
<path opacity="0.2" d="M170.952 278.769L173.736 275.998L175.462 262.306L174.109 256.658L170.952 278.769Z" fill="black"/>
<path d="M239.959 270.453C239.546 270.453 239.128 270.323 238.773 270.054C231.975 264.887 222.786 255.714 219.26 246.865C219.208 246.736 219.171 246.601 219.148 246.464C217.429 236.24 215.786 214.718 215.717 213.806C215.635 212.727 216.444 211.784 217.524 211.702C218.601 211.623 219.547 212.429 219.629 213.51C219.646 213.73 221.305 235.462 222.983 245.604C226.5 254.208 236.034 263.043 241.147 266.929C242.01 267.585 242.178 268.816 241.522 269.678C241.137 270.186 240.552 270.453 239.959 270.453Z" fill="#263238"/>
<path d="M249.029 271.445C247.512 271.445 245.792 270.757 243.918 269.401C243.041 268.765 242.844 267.539 243.48 266.661C244.115 265.784 245.341 265.587 246.219 266.222C247.839 267.394 248.724 267.521 249.029 267.521C250.113 267.521 250.991 268.399 250.991 269.483C250.991 270.566 250.112 271.445 249.029 271.445Z" fill="#263238"/>
<path d="M244.468 269.345C246.567 263.109 255.174 264.341 258.138 265.267C261.102 266.193 263.772 267.358 265.377 268.408C266.983 269.458 267.009 271.211 264.868 272.212C262.228 273.447 255.607 272.351 255.607 272.351C259.034 273.852 255.6 276.257 249.587 273.895C247.629 273.125 243.727 271.63 244.468 269.345Z" fill="#2873BA"/>
<path d="M223.578 216.498C222.799 221.796 218.411 225.703 214.842 225.179C211.272 224.654 211.124 219.922 211.902 214.623C212.681 209.324 214.093 205.467 217.662 205.991C221.232 206.516 224.357 211.199 223.578 216.498Z" fill="#263238"/>
<path d="M137.258 195.346C137.554 195.346 137.794 195.106 137.794 194.81C137.794 194.514 137.554 194.275 137.258 194.275C136.962 194.275 136.723 194.514 136.723 194.81C136.723 195.106 136.962 195.346 137.258 195.346Z" fill="#263238"/>
<path d="M142.708 198.671C142.708 198.966 142.468 199.206 142.172 199.206C141.877 199.206 141.636 198.966 141.636 198.671C141.636 198.375 141.876 198.135 142.172 198.135C142.469 198.135 142.708 198.375 142.708 198.671Z" fill="#263238"/>
<path d="M143.308 262.047C143.308 262.343 143.068 262.582 142.772 262.582C142.476 262.582 142.236 262.342 142.236 262.047C142.236 261.75 142.476 261.511 142.772 261.511C143.068 261.51 143.308 261.75 143.308 262.047Z" fill="#263238"/>
<path d="M148.222 265.907C148.222 266.204 147.982 266.443 147.686 266.443C147.39 266.443 147.15 266.203 147.15 265.907C147.15 265.611 147.39 265.372 147.686 265.372C147.982 265.371 148.222 265.611 148.222 265.907Z" fill="#263238"/>
<path d="M53.9615 272.338C52.405 272.338 50.3005 271.395 49.1658 269.755C49.0631 269.607 49.0997 269.404 49.2482 269.301C49.3966 269.198 49.6 269.235 49.7033 269.384C50.9237 271.146 53.6136 272.086 54.8078 271.529C54.9334 271.47 55.0354 271.396 55.1132 271.307C54.0459 270.814 53.0701 269.849 52.8072 268.376C52.6588 267.547 52.5411 266.427 53.2251 266.272C54.163 266.062 55.3899 268.33 55.8621 270.049C55.9497 270.367 55.9772 270.662 55.9471 270.927C56.3604 271.04 56.7672 271.07 57.1158 271.02C57.399 270.978 57.8012 270.862 58.015 270.532C57.2204 269.995 56.6861 269.048 56.5076 267.793C56.2538 266.005 56.4441 265.693 56.6423 265.54C56.7711 265.442 56.9346 265.423 57.0922 265.489C57.7914 265.787 58.639 268.324 58.8011 269.759C58.8188 269.918 58.8188 270.069 58.8031 270.213C59.0706 270.319 59.3655 270.377 59.6854 270.384C60.2524 270.417 60.8128 270.236 61.2615 269.973C61.1686 269.914 61.081 269.85 60.9986 269.78C60.3197 269.199 60.0464 268.273 60.1615 266.947C60.2504 265.922 60.4839 265.362 60.8959 265.186C61.0404 265.122 61.3347 265.062 61.6859 265.342C62.3923 265.907 63.0515 267.695 62.8147 268.976C62.7657 269.241 62.6512 269.496 62.4864 269.729C63.6865 269.936 65.3752 269.599 66.8316 269.239C67.0062 269.197 67.1841 269.303 67.2273 269.478C67.2704 269.654 67.1638 269.831 66.9886 269.874C65.2162 270.312 63.3085 270.668 61.9606 270.277C61.3616 270.754 60.5179 271.043 59.6729 271.037C59.2877 271.029 58.9287 270.961 58.601 270.836C58.3433 271.275 57.864 271.572 57.2119 271.667C56.7777 271.732 56.2662 271.69 55.7483 271.542C55.6011 271.787 55.3788 271.984 55.0858 272.122C54.7718 272.267 54.3873 272.337 53.9615 272.338ZM53.3965 266.925C53.3586 267.025 53.2899 267.356 53.4521 268.262C53.6672 269.465 54.4462 270.265 55.3088 270.687C55.3049 270.547 55.2794 270.393 55.2329 270.224C54.7189 268.354 53.7425 267.065 53.3965 266.925ZM57.0399 266.355C57.036 266.6 57.0582 267.014 57.1557 267.701C57.2884 268.635 57.6324 269.352 58.1491 269.809C57.9961 268.495 57.4134 266.975 57.0399 266.355ZM61.1542 265.786H61.1529C61.1516 265.787 60.9077 265.911 60.8122 267.003C60.7167 268.103 60.9168 268.849 61.423 269.281C61.5381 269.379 61.6689 269.462 61.8148 269.529C61.9999 269.324 62.1261 269.096 62.1699 268.857C62.3452 267.909 61.8939 266.521 61.3877 265.96C61.2569 265.814 61.1725 265.786 61.1542 265.786Z" fill="#263238"/>
<path d="M149.683 277.282L151.455 274.208L149.683 271.134H147.786L148.858 274.208L147.786 277.282H149.683Z" fill="#263238"/>
<path d="M147.911 275.81C147.028 275.81 146.308 275.091 146.308 274.208C146.308 273.325 147.028 272.612 147.911 272.612L144.897 272.009L144.098 274.443L145.442 276.496L147.911 275.81Z" fill="#263238"/>
<path d="M148.168 271.134H144.617L142.845 274.208L144.617 277.282H148.168L149.941 274.208L148.168 271.134ZM146.396 275.81C145.513 275.81 144.794 275.091 144.794 274.208C144.794 273.325 145.513 272.612 146.396 272.612C147.279 272.612 147.992 273.325 147.992 274.208C147.992 275.091 147.279 275.81 146.396 275.81Z" fill="#2873BA"/>
<path d="M273.299 270.929L271.984 268.646L273.299 266.364H274.709L273.913 268.647L274.709 270.929H273.299Z" fill="#2873BA"/>
<path d="M274.616 269.836C275.272 269.836 275.806 269.302 275.806 268.646C275.806 267.991 275.272 267.461 274.616 267.461L276.854 267.013L277.448 268.821L276.449 270.345L274.616 269.836Z" fill="#2873BA"/>
<path d="M274.425 266.364H277.063L278.379 268.646L277.063 270.929H274.425L273.109 268.646L274.425 266.364ZM275.742 269.836C276.397 269.836 276.932 269.302 276.932 268.646C276.932 267.991 276.397 267.461 275.742 267.461C275.086 267.461 274.556 267.991 274.556 268.646C274.556 269.302 275.086 269.836 275.742 269.836Z" fill="#263238"/>
<path d="M224.288 273.959H227.243C228.012 273.959 228.642 273.33 228.642 272.56C228.642 271.791 228.012 271.161 227.243 271.161H224.288C223.518 271.161 222.889 271.791 222.889 272.56C222.889 273.33 223.518 273.959 224.288 273.959Z" fill="#263238"/>
<path d="M219.568 271.32C220.297 269.773 222.066 269.074 223.519 269.759C224.972 270.443 225.558 272.253 224.828 273.8C224.099 275.348 222.33 276.047 220.878 275.362C219.424 274.677 218.838 272.868 219.568 271.32Z" fill="#2873BA"/>
<path d="M220.399 275.35L221.21 275.732L224.027 269.756L223.217 269.374L220.399 275.35Z" fill="#263238"/>
</g>
<defs>
<clipPath id="clip0_113_821">
<rect width="327" height="327" fill="white"/>
</clipPath>
</defs>
</svg>
