<svg width="370" height="370" viewBox="0 0 370 370" fill="none" xmlns="http://www.w3.org/2000/svg">
<path d="M370 282.976H0V283.161H370V282.976Z" fill="#EBEBEB"/>
<path d="M332.926 291.686H308.417V291.871H332.926V291.686Z" fill="#EBEBEB"/>
<path d="M284.737 286.151H176.298V286.336H284.737V286.151Z" fill="#EBEBEB"/>
<path d="M50.0757 286.062H38.8203V286.247H50.0757V286.062Z" fill="#EBEBEB"/>
<path d="M82.0587 286.062H56.6619V286.247H82.0587V286.062Z" fill="#EBEBEB"/>
<path d="M129.996 289.185H97.2878V289.37H129.996V289.185Z" fill="#EBEBEB"/>
<path d="M176.453 249.972H33.5589C31.2257 249.972 29.3335 248.081 29.3335 245.747V44.8884C29.3535 42.5692 31.2397 40.7 33.5589 40.7H176.453C178.784 40.7044 180.671 42.5944 180.671 44.9254V245.747C180.671 248.078 178.784 249.968 176.453 249.972ZM33.5589 40.848C31.3293 40.8524 29.5229 42.6588 29.5185 44.8884V245.747C29.5229 247.976 31.3293 249.783 33.5589 249.787H176.453C178.682 249.783 180.486 247.975 180.486 245.747V44.8884C180.486 42.6595 178.682 40.8524 176.453 40.848H33.5589Z" fill="#EBEBEB"/>
<path d="M335.449 249.972H192.555C190.224 249.968 188.334 248.078 188.33 245.747V44.8884C188.354 42.5707 190.238 40.7037 192.555 40.7H335.449C337.763 40.7081 339.64 42.5751 339.66 44.8884V245.747C339.66 248.075 337.777 249.964 335.449 249.972ZM192.555 40.848C190.326 40.8524 188.519 42.6588 188.515 44.8884V245.747C188.519 247.976 190.326 249.783 192.555 249.787H335.449C337.679 249.783 339.485 247.976 339.49 245.747V44.8884C339.486 42.6588 337.679 40.8524 335.449 40.848H192.555Z" fill="#EBEBEB"/>
<path d="M184.694 147.464H132.96V282.976H184.694V147.464Z" fill="#F0F0F0"/>
<path d="M179.522 147.464H118.765V282.976H179.522V147.464Z" fill="#FAFAFA"/>
<path d="M129.054 151.733H121.893V158.894H129.054V151.733Z" fill="#EBEBEB"/>
<path d="M140.737 151.733H133.576V158.894H140.737V151.733Z" fill="#EBEBEB"/>
<path d="M152.42 151.733H145.259V158.894H152.42V151.733Z" fill="#EBEBEB"/>
<path d="M164.103 151.733H156.942V158.894H164.103V151.733Z" fill="#EBEBEB"/>
<path d="M175.786 151.733H168.625V158.894H175.786V151.733Z" fill="#EBEBEB"/>
<path d="M129.054 161.377H121.893V168.538H129.054V161.377Z" fill="#EBEBEB"/>
<path d="M140.737 161.377H133.576V168.538H140.737V161.377Z" fill="#EBEBEB"/>
<path d="M152.42 161.377H145.259V168.538H152.42V161.377Z" fill="#EBEBEB"/>
<path d="M164.103 161.377H156.942V168.538H164.103V161.377Z" fill="#EBEBEB"/>
<path d="M175.786 161.377H168.625V168.538H175.786V161.377Z" fill="#EBEBEB"/>
<path d="M129.054 171.021H121.893V178.182H129.054V171.021Z" fill="#EBEBEB"/>
<path d="M140.737 171.021H133.576V178.182H140.737V171.021Z" fill="#EBEBEB"/>
<path d="M152.42 171.021H145.259V178.182H152.42V171.021Z" fill="#EBEBEB"/>
<path d="M164.103 171.021H156.942V178.182H164.103V171.021Z" fill="#EBEBEB"/>
<path d="M175.786 171.021H168.625V178.182H175.786V171.021Z" fill="#EBEBEB"/>
<path d="M129.054 180.664H121.893V187.825H129.054V180.664Z" fill="#EBEBEB"/>
<path d="M140.737 180.664H133.576V187.825H140.737V180.664Z" fill="#EBEBEB"/>
<path d="M152.42 180.664H145.259V187.825H152.42V180.664Z" fill="#EBEBEB"/>
<path d="M164.103 180.664H156.942V187.825H164.103V180.664Z" fill="#EBEBEB"/>
<path d="M175.786 180.664H168.625V187.825H175.786V180.664Z" fill="#EBEBEB"/>
<path d="M129.054 190.308H121.893V197.469H129.054V190.308Z" fill="#EBEBEB"/>
<path d="M140.737 190.308H133.576V197.469H140.737V190.308Z" fill="#EBEBEB"/>
<path d="M152.42 190.308H145.259V197.469H152.42V190.308Z" fill="#EBEBEB"/>
<path d="M164.103 190.308H156.942V197.469H164.103V190.308Z" fill="#EBEBEB"/>
<path d="M175.786 190.308H168.625V197.469H175.786V190.308Z" fill="#EBEBEB"/>
<path d="M251.234 130.61H198.734V282.976H251.234V130.61Z" fill="#E6E6E6"/>
<path d="M236.001 130.61H184.538V282.976H236.001V130.61Z" fill="#F5F5F5"/>
<path d="M232.362 135.916H188.665V141.575H232.362V135.916Z" fill="#E0E0E0"/>
<path d="M232.362 144.635H188.665V150.294H232.362V144.635Z" fill="#E0E0E0"/>
<path d="M232.362 153.352H188.665V159.012H232.362V153.352Z" fill="#E0E0E0"/>
<path d="M232.362 162.071H188.665V167.731H232.362V162.071Z" fill="#E0E0E0"/>
<path d="M232.362 170.789H188.665V176.449H232.362V170.789Z" fill="#E0E0E0"/>
<path d="M118.765 202.111H66.2642V282.976H118.765V202.111Z" fill="#E6E6E6"/>
<path d="M103.532 202.111H52.0686V282.976H103.532V202.111Z" fill="#F0F0F0"/>
<path d="M99.6491 206.793H55.9521V212.452H99.6491V206.793Z" fill="#E0E0E0"/>
<path d="M99.6491 215.512H55.9521V221.171H99.6491V215.512Z" fill="#E0E0E0"/>
<path d="M99.6491 224.23H55.9521V229.889H99.6491V224.23Z" fill="#E0E0E0"/>
<path d="M99.6491 232.948H55.9521V238.608H99.6491V232.948Z" fill="#E0E0E0"/>
<path d="M99.6491 241.667H55.9521V247.326H99.6491V241.667Z" fill="#E0E0E0"/>
<path d="M317.931 202.111H265.43V282.976H317.931V202.111Z" fill="#E6E6E6"/>
<path d="M302.699 202.111H251.235V282.976H302.699V202.111Z" fill="#F0F0F0"/>
<path d="M263.023 206.793H255.862V213.954H263.023V206.793Z" fill="#FAFAFA"/>
<path d="M274.706 206.793H267.545V213.954H274.706V206.793Z" fill="#FAFAFA"/>
<path d="M286.389 206.793H279.228V213.954H286.389V206.793Z" fill="#FAFAFA"/>
<path d="M298.071 206.793H290.91V213.954H298.071V206.793Z" fill="#FAFAFA"/>
<path d="M263.023 217.544H255.862V224.705H263.023V217.544Z" fill="#FAFAFA"/>
<path d="M274.706 217.544H267.545V224.705H274.706V217.544Z" fill="#FAFAFA"/>
<path d="M286.389 217.544H279.228V224.705H286.389V217.544Z" fill="#FAFAFA"/>
<path d="M298.071 217.544H290.91V224.705H298.071V217.544Z" fill="#FAFAFA"/>
<path d="M263.023 228.296H255.862V235.457H263.023V228.296Z" fill="#FAFAFA"/>
<path d="M274.706 228.296H267.545V235.457H274.706V228.296Z" fill="#FAFAFA"/>
<path d="M286.389 228.296H279.228V235.457H286.389V228.296Z" fill="#FAFAFA"/>
<path d="M298.071 228.296H290.91V235.457H298.071V228.296Z" fill="#FAFAFA"/>
<path d="M263.023 239.047H255.862V246.208H263.023V239.047Z" fill="#FAFAFA"/>
<path d="M274.706 239.047H267.545V246.208H274.706V239.047Z" fill="#FAFAFA"/>
<path d="M286.389 239.047H279.228V246.208H286.389V239.047Z" fill="#FAFAFA"/>
<path d="M298.071 239.047H290.91V246.208H298.071V239.047Z" fill="#FAFAFA"/>
<path d="M38.8203 137.527H107.657C107.657 137.527 112.113 128.724 104.514 128.724C104.514 128.724 103.134 119.018 96.3272 117.71C89.5207 116.401 85.6186 124.616 85.6186 124.616C85.6186 124.616 82.4892 106.748 73.8874 108.596C65.2857 110.445 65.2857 118.66 65.2857 118.66C65.2857 118.66 60.3565 110.24 53.5789 113.526C46.8012 116.812 48.8555 130.367 48.8555 130.367C48.8555 130.367 39.0542 126.613 38.8203 137.527Z" fill="#F5F5F5"/>
<path d="M249.505 66.9633H303.894C303.894 66.9633 299.192 59.8068 290.808 61.8514C290.808 61.8514 292.853 52.446 283.447 54.4906C283.447 54.4906 278.949 44.4717 272.202 47.1298C265.454 49.7879 266.476 59.3983 266.476 59.3983C266.476 59.3983 250.936 54.8998 249.505 66.9633Z" fill="#F5F5F5"/>
<path d="M336.38 157.163H257.753C257.753 157.163 264.551 146.817 276.671 149.773C276.671 149.773 273.715 136.176 287.312 139.132C287.312 139.132 293.815 124.648 303.569 128.491C313.324 132.333 311.846 146.226 311.846 146.226C311.846 146.226 334.311 139.722 336.38 157.163Z" fill="#F5F5F5"/>
<path d="M273.79 106.303C272.981 108.823 269.853 109.762 269.853 109.762L126.389 117.401C116.223 117.591 108.978 116.342 103.825 114.48C100.255 113.187 97.6813 111.603 95.8328 109.992C91.1382 105.9 91.0739 101.646 91.0739 101.646L110.881 100.634C112.546 100.547 114.296 100.458 116.115 100.364L122.146 100.052C166.743 97.7814 244.189 93.8653 249.791 93.8483C252.222 93.8439 255.373 94.4374 258.591 95.386C261.196 96.1505 263.846 97.1546 266.188 98.2506C269.181 99.6492 271.683 101.203 272.978 102.64C273.498 103.203 273.821 103.758 273.912 104.272C274.045 105.042 273.98 105.709 273.79 106.303Z" fill="#2873BA"/>
<path d="M122.148 100.053L116.117 100.364L110.883 100.634L91.0754 101.647L88.4846 80.2066L97.1515 79.8492C97.1515 79.8492 98.7025 82.619 104.615 90.8486C110.528 99.0781 122.148 100.053 122.148 100.053Z" fill="#2873BA"/>
<path d="M273.79 106.303C272.981 108.823 269.853 109.762 269.853 109.762L126.389 117.401C116.223 117.591 108.978 116.342 103.825 114.48L273.79 106.303Z" fill="#263238"/>
<path opacity="0.1" d="M272.976 102.638L95.835 109.994C91.136 105.901 91.0768 101.646 91.0768 101.646L91.0472 101.417L90.8844 100.055L88.4868 80.2086L97.1522 79.846C97.1522 79.846 98.7062 82.621 104.619 90.8498C110.531 99.0786 122.149 100.055 122.149 100.055C166.742 97.7836 244.19 93.8616 249.792 93.8468C252.227 93.8468 255.372 94.4388 258.591 95.386C258.909 95.4748 259.22 95.571 259.538 95.6746C261.832 96.3924 264.126 97.2878 266.19 98.2498C266.583 98.4348 266.967 98.6198 267.337 98.8122C269.816 100.055 271.858 101.387 272.976 102.638Z" fill="black"/>
<path d="M130.225 106.354L129.91 106.368C129.304 106.394 128.788 105.919 128.763 105.314L128.707 104.006C128.681 103.4 129.156 102.884 129.761 102.859L130.076 102.845C130.682 102.819 131.198 103.294 131.223 103.899L131.279 105.207C131.305 105.813 130.83 106.328 130.225 106.354Z" fill="white"/>
<path d="M135.499 106.12L135.185 106.15C134.582 106.206 134.042 105.759 133.986 105.156L133.864 103.852C133.807 103.249 134.255 102.709 134.858 102.652L135.172 102.623C135.775 102.566 136.315 103.014 136.372 103.617L136.494 104.921C136.55 105.525 136.102 106.064 135.499 106.12Z" fill="white"/>
<path d="M140.695 105.911L140.38 105.924C139.775 105.95 139.258 105.476 139.233 104.871L139.178 103.562C139.152 102.957 139.626 102.44 140.231 102.415L140.547 102.402C141.152 102.376 141.668 102.85 141.694 103.456L141.749 104.764C141.775 105.369 141.301 105.886 140.695 105.911Z" fill="white"/>
<path d="M145.929 105.69L145.613 105.703C145.008 105.729 144.492 105.255 144.466 104.649L144.411 103.34C144.385 102.735 144.859 102.218 145.465 102.193L145.78 102.18C146.385 102.154 146.902 102.628 146.927 103.234L146.982 104.542C147.008 105.148 146.534 105.665 145.929 105.69Z" fill="white"/>
<path d="M151.505 105.454L151.19 105.468C150.585 105.494 150.068 105.019 150.043 104.414L149.987 103.106C149.962 102.5 150.436 101.984 151.041 101.959L151.356 101.945C151.962 101.919 152.478 102.394 152.503 102.999L152.559 104.307C152.585 104.912 152.111 105.429 151.505 105.454Z" fill="white"/>
<path d="M156.95 105.224L156.635 105.237C156.03 105.263 155.513 104.788 155.488 104.183L155.433 102.875C155.407 102.269 155.881 101.753 156.486 101.728L156.802 101.714C157.407 101.689 157.923 102.163 157.949 102.768L158.004 104.077C158.03 104.682 157.556 105.198 156.95 105.224Z" fill="white"/>
<path d="M206.767 103.126L206.452 103.14C205.846 103.166 205.33 102.691 205.305 102.086L205.249 100.778C205.223 100.172 205.698 99.6558 206.303 99.6307L206.618 99.6173C207.223 99.5914 207.74 100.066 207.765 100.671L207.821 101.979C207.847 102.585 207.372 103.101 206.767 103.126Z" fill="white"/>
<path d="M212.316 102.892L212.001 102.905C211.396 102.931 210.879 102.457 210.854 101.851L210.798 100.543C210.773 99.9377 211.247 99.4212 211.852 99.3961L212.168 99.3827C212.773 99.3568 213.289 99.8312 213.314 100.437L213.37 101.745C213.396 102.35 212.922 102.866 212.316 102.892Z" fill="white"/>
<path d="M217.256 102.683L216.94 102.696C216.335 102.722 215.819 102.248 215.793 101.643L215.738 100.334C215.712 99.7291 216.186 99.2126 216.792 99.1874L217.107 99.1741C217.712 99.1482 218.229 99.6225 218.254 100.228L218.309 101.536C218.335 102.141 217.861 102.657 217.256 102.683Z" fill="white"/>
<path d="M222.416 102.465L222.1 102.478C221.495 102.504 220.979 102.03 220.953 101.424L220.898 100.116C220.872 99.5108 221.346 98.9943 221.952 98.9691L222.267 98.9558C222.872 98.9299 223.389 99.4042 223.414 100.01L223.469 101.318C223.495 101.923 223.021 102.439 222.416 102.465Z" fill="white"/>
<path d="M227.278 102.259L226.962 102.272C226.357 102.298 225.84 101.824 225.815 101.219L225.76 99.9104C225.734 99.3051 226.208 98.7885 226.814 98.7634L227.129 98.7501C227.734 98.7242 228.251 99.1985 228.276 99.8038L228.331 101.112C228.357 101.717 227.883 102.233 227.278 102.259Z" fill="white"/>
<path d="M203.561 101.866L150.383 84.4718C148.422 83.8302 146.363 83.5386 144.301 83.6089L132.39 84.0167L163.5 103.793L203.561 101.866Z" fill="#263238"/>
<path d="M180.61 114.514L169.561 124.882L173.845 125.08C175.912 125.175 177.979 124.892 179.943 124.244L214.994 112.684L180.61 114.514Z" fill="#263238"/>
<path d="M138.434 113.868L136.555 111.824L118.868 107.746C116.606 107.225 114.281 107.03 111.963 107.168L104.255 107.628L119.184 114.795L138.434 113.868Z" fill="#263238"/>
<path d="M122.149 100.055L91.0466 101.417L90.8838 100.055L89.8478 91.464L89.3668 87.4976L88.4862 80.2086L97.1516 79.846C97.1516 79.846 98.2024 81.7182 101.851 86.95C102.605 88.0378 103.479 89.2662 104.485 90.6648C104.529 90.724 104.574 90.7832 104.618 90.8498C110.531 99.0786 122.149 100.055 122.149 100.055Z" fill="#263238"/>
<path d="M104.486 90.6648L89.8486 91.464L89.3676 87.4976L101.851 86.95C102.605 88.0378 103.479 89.2662 104.486 90.6648Z" fill="white"/>
<path d="M267.337 98.8122C259.789 99.3376 238.425 100.344 235.273 100.115C231.38 99.826 231.891 96.9104 231.891 96.9104L259.537 95.6746C261.831 96.3924 264.125 97.2878 266.19 98.2498C266.582 98.4348 266.967 98.6198 267.337 98.8122Z" fill="white"/>
<path d="M224.596 55.3342C224.535 55.0508 224.343 54.7504 224.042 54.4492C223.948 54.353 223.843 54.2561 223.729 54.1591C222.933 53.4798 221.657 52.7842 220.178 52.1626C220.017 52.0953 219.847 52.0316 219.682 51.9658C218.486 51.4899 217.184 51.063 215.9 50.7403C214.237 50.3207 212.617 50.0706 211.317 50.0765C211.205 50.0765 211.09 50.0758 210.982 50.0802C209.439 50.1454 198.087 51.1347 184.026 52.3883C180.126 52.7361 176.019 53.1039 171.854 53.4776L162.465 50.8128C161.362 50.4998 160.214 50.3829 159.071 50.468L152.47 50.9564L158.826 54.6512C152.172 55.2521 145.781 55.8308 140.289 56.3295C140.289 56.3295 137.232 56.1949 134.197 54.6697C132.817 53.9756 131.442 52.9951 130.36 51.6083C129.084 49.9737 128.156 48.7394 127.488 47.8292C127.471 47.8062 127.452 47.7811 127.436 47.7589C127.351 47.6427 127.273 47.5354 127.197 47.4296C127.116 47.3171 127.039 47.2105 126.967 47.1099C126.952 47.0884 126.934 47.0647 126.92 47.0433C126.859 46.9582 126.803 46.879 126.748 46.802C126.737 46.7865 126.726 46.7702 126.715 46.7554C126.659 46.677 126.607 46.603 126.559 46.5334C126.556 46.5282 126.552 46.5231 126.548 46.5179C126.34 46.2204 126.197 46.0073 126.106 45.8696L126.106 45.8689C126.086 45.8378 126.069 45.8127 126.053 45.789C126.049 45.7823 126.044 45.7749 126.04 45.7683C126.028 45.7498 126.018 45.7335 126.009 45.7209C126.004 45.7135 126 45.7068 125.997 45.7017C125.992 45.6935 125.986 45.6846 125.983 45.6795C125.979 45.6735 125.975 45.6661 125.975 45.6661L123.166 45.8955L121.173 46.0569L123.032 57.5868L123.061 57.7703L123.067 57.7992L123.082 57.8976C123.082 57.8976 123.102 58.2424 123.275 58.7871C123.555 59.6706 124.239 61.084 125.907 62.4242H125.907C126.969 63.2774 128.432 64.0988 130.44 64.7382C133.341 65.658 137.388 66.1923 143.025 65.863L173.048 63.0687L167.145 69.0649L169.527 69.0805C170.675 69.0879 171.816 68.8851 172.892 68.4826L192.088 61.2972L222.466 58.4704C222.466 58.4704 224.181 57.8806 224.575 56.4642C224.664 56.1305 224.686 55.759 224.596 55.3342Z" fill="#2873BA"/>
<path opacity="0.5" d="M224.596 55.3342C224.535 55.0508 224.343 54.7504 224.042 54.4492C223.948 54.353 223.843 54.2561 223.729 54.1591C222.933 53.4798 221.657 52.7842 220.178 52.1626C220.017 52.0953 219.847 52.0316 219.682 51.9658C218.486 51.4899 217.184 51.063 215.9 50.7403C214.237 50.3207 212.617 50.0706 211.317 50.0765C211.205 50.0765 211.09 50.0758 210.982 50.0802C209.439 50.1454 198.087 51.1347 184.026 52.3883C180.126 52.7361 176.019 53.1039 171.854 53.4776L162.465 50.8128C161.362 50.4998 160.214 50.3829 159.071 50.468L152.47 50.9564L158.826 54.6512C152.172 55.2521 145.781 55.8308 140.289 56.3295C140.289 56.3295 137.232 56.1949 134.197 54.6697C132.817 53.9756 131.442 52.9951 130.36 51.6083C129.084 49.9737 128.156 48.7394 127.488 47.8292C127.471 47.8062 127.452 47.7811 127.436 47.7589C127.351 47.6427 127.273 47.5354 127.197 47.4296C127.116 47.3171 127.039 47.2105 126.967 47.1099C126.952 47.0884 126.934 47.0647 126.92 47.0433C126.859 46.9582 126.803 46.879 126.748 46.802C126.737 46.7865 126.726 46.7702 126.715 46.7554C126.659 46.677 126.607 46.603 126.559 46.5334C126.556 46.5282 126.552 46.5231 126.548 46.5179C126.34 46.2204 126.197 46.0073 126.106 45.8696L126.106 45.8689C126.086 45.8378 126.069 45.8127 126.053 45.789C126.049 45.7823 126.044 45.7749 126.04 45.7683C126.028 45.7498 126.018 45.7335 126.009 45.7209C126.004 45.7135 126 45.7068 125.997 45.7017C125.992 45.6935 125.986 45.6846 125.983 45.6795C125.979 45.6735 125.975 45.6661 125.975 45.6661L123.166 45.8955L121.173 46.0569L123.032 57.5868L123.061 57.7703L123.067 57.7992L123.082 57.8976C123.082 57.8976 123.102 58.2424 123.275 58.7871C123.555 59.6706 124.239 61.084 125.907 62.4242H125.907C126.969 63.2774 128.432 64.0988 130.44 64.7382C133.341 65.658 137.388 66.1923 143.025 65.863L173.048 63.0687L167.145 69.0649L169.527 69.0805C170.675 69.0879 171.816 68.8851 172.892 68.4826L192.088 61.2972L222.466 58.4704C222.466 58.4704 224.181 57.8806 224.575 56.4642C224.664 56.1305 224.686 55.759 224.596 55.3342Z" fill="black"/>
<path d="M306.948 142.326C306.909 142.104 306.77 141.865 306.546 141.623C306.476 141.545 306.398 141.467 306.313 141.388C305.716 140.837 304.748 140.258 303.621 139.731C303.498 139.674 303.368 139.62 303.242 139.563C302.329 139.158 301.333 138.786 300.347 138.497C299.071 138.121 297.823 137.877 296.815 137.841C296.728 137.838 296.639 137.834 296.555 137.834C295.356 137.837 286.524 138.255 275.584 138.795C272.55 138.945 269.354 139.104 266.113 139.266L258.915 136.911C258.07 136.635 257.183 136.509 256.295 136.54L251.162 136.716L255.976 139.776C250.799 140.037 245.826 140.29 241.552 140.508C241.552 140.508 239.187 140.309 236.88 139.033C235.831 138.453 234.795 137.65 233.999 136.542C233.06 135.235 232.378 134.249 231.889 133.523C231.876 133.505 231.863 133.485 231.851 133.467C231.789 133.375 231.732 133.289 231.676 133.204C231.616 133.115 231.559 133.03 231.507 132.949C231.496 132.932 231.483 132.913 231.472 132.897C231.428 132.829 231.386 132.766 231.347 132.704C231.339 132.692 231.331 132.679 231.323 132.667C231.282 132.605 231.244 132.546 231.209 132.49C231.206 132.486 231.203 132.482 231.201 132.478C231.049 132.24 230.944 132.072 230.878 131.961L230.877 131.961C230.862 131.936 230.85 131.915 230.839 131.897C230.836 131.892 230.832 131.886 230.829 131.881C230.82 131.866 230.813 131.853 230.807 131.843C230.804 131.837 230.801 131.832 230.798 131.827C230.794 131.821 230.79 131.814 230.788 131.81C230.785 131.804 230.782 131.799 230.782 131.799L228.596 131.891L227.046 131.955L228.133 140.951L228.15 141.094L228.153 141.117L228.162 141.193C228.162 141.193 228.167 141.461 228.284 141.889C228.474 142.583 228.961 143.699 230.213 144.79C231.009 145.484 232.118 146.166 233.656 146.723C235.877 147.526 238.998 148.064 243.379 147.982L266.743 146.738L261.982 151.206L263.827 151.291C264.717 151.331 265.608 151.209 266.455 150.93L281.558 145.949L305.198 144.691C305.198 144.691 306.546 144.286 306.894 143.2C306.977 142.944 307.005 142.657 306.948 142.326Z" fill="#407BFF"/>
<path opacity="0.7" d="M306.948 142.326C306.909 142.104 306.77 141.865 306.546 141.623C306.476 141.545 306.398 141.467 306.313 141.388C305.716 140.837 304.748 140.258 303.621 139.731C303.498 139.674 303.368 139.62 303.242 139.563C302.329 139.158 301.333 138.786 300.347 138.497C299.071 138.121 297.823 137.877 296.815 137.841C296.728 137.838 296.639 137.834 296.555 137.834C295.356 137.837 286.524 138.255 275.584 138.795C272.55 138.945 269.354 139.104 266.113 139.266L258.915 136.911C258.07 136.635 257.183 136.509 256.295 136.54L251.162 136.716L255.976 139.776C250.799 140.037 245.826 140.29 241.552 140.508C241.552 140.508 239.187 140.309 236.88 139.033C235.831 138.453 234.795 137.65 233.999 136.542C233.06 135.235 232.378 134.249 231.889 133.523C231.876 133.505 231.863 133.485 231.851 133.467C231.789 133.375 231.732 133.289 231.676 133.204C231.616 133.115 231.559 133.03 231.507 132.949C231.496 132.932 231.483 132.913 231.472 132.897C231.428 132.829 231.386 132.766 231.347 132.704C231.339 132.692 231.331 132.679 231.323 132.667C231.282 132.605 231.244 132.546 231.209 132.49C231.206 132.486 231.203 132.482 231.201 132.478C231.049 132.24 230.944 132.072 230.878 131.961L230.877 131.961C230.862 131.936 230.85 131.915 230.839 131.897C230.836 131.892 230.832 131.886 230.829 131.881C230.82 131.866 230.813 131.853 230.807 131.843C230.804 131.837 230.801 131.832 230.798 131.827C230.794 131.821 230.79 131.814 230.788 131.81C230.785 131.804 230.782 131.799 230.782 131.799L228.596 131.891L227.046 131.955L228.133 140.951L228.15 141.094L228.153 141.117L228.162 141.193C228.162 141.193 228.167 141.461 228.284 141.889C228.474 142.583 228.961 143.699 230.213 144.79C231.009 145.484 232.118 146.166 233.656 146.723C235.877 147.526 238.998 148.064 243.379 147.982L266.743 146.738L261.982 151.206L263.827 151.291C264.717 151.331 265.608 151.209 266.455 150.93L281.558 145.949L305.198 144.691C305.198 144.691 306.546 144.286 306.894 143.2C306.977 142.944 307.005 142.657 306.948 142.326Z" fill="black"/>
<path d="M185 316.394C264.241 316.394 328.479 312.644 328.479 308.018C328.479 303.391 264.241 299.641 185 299.641C105.759 299.641 41.5215 303.391 41.5215 308.018C41.5215 312.644 105.759 316.394 185 316.394Z" fill="#F5F5F5"/>
<path d="M334.435 15.3934L30.4346 328.393" stroke="#B1BAC3" stroke-width="6" stroke-linecap="round"/>
<path d="M30.4346 15.3934L334.435 328.393" stroke="#B1BAC3" stroke-width="6" stroke-linecap="round"/>
</svg>
