<svg width="128" height="22" viewBox="0 0 128 22" fill="none" xmlns="http://www.w3.org/2000/svg">
<line x1="1.09375" y1="11.0012" x2="126.094" y2="11.0012" stroke="#364D65" stroke-dasharray="2 2"/>
<circle cx="124" cy="11.0002" r="4" fill="#04203E"/>
<path fill-rule="evenodd" clip-rule="evenodd" d="M56.3846 10.9573C56.7298 10.6138 57.2621 10.4728 57.9577 10.4147L57.2801 7.40605C57.2143 7.23942 57.2878 7.17106 57.439 7.15483L58.1628 7.21208C58.2773 7.23942 58.3713 7.29582 58.4302 7.39921L60.3204 10.0584L64.2681 9.90117L62.8369 2.4833C62.7907 2.30557 62.8557 2.22183 63.0573 2.25088L64.2049 2.37991L68.3518 9.76873L71.8774 9.65081C72.9438 9.72771 73.7206 10.0618 74.0419 10.5933C74.2187 10.8864 74.2316 11.0394 74.0837 11.3325C73.7923 11.9058 72.9925 12.2681 71.8774 12.3493L68.3518 12.2314L64.2049 19.6202L63.0573 19.7492C62.8565 19.7774 62.7916 19.6937 62.8369 19.5168L64.2664 12.0989L60.3195 11.9409L58.4294 14.6C58.3713 14.7026 58.2781 14.7598 58.1619 14.7872L57.4382 14.8444C57.2878 14.829 57.2134 14.7598 57.2792 14.5932L57.9568 11.5845C57.2587 11.5256 56.7264 11.3846 56.3803 11.0385C56.3495 11.006 56.3538 10.9881 56.3846 10.9573Z" fill="#04203E"/>
<circle cx="4" cy="11" r="4" fill="#04203E"/>
</svg>
