<svg width="36" height="225" viewBox="0 0 36 225" fill="none" xmlns="http://www.w3.org/2000/svg">
<path d="M18 0L18 225" stroke="#B1BAC3" stroke-dasharray="2 2"/>
<path fill-rule="evenodd" clip-rule="evenodd" d="M17.7973 105.024C18.1408 105.354 18.2818 105.862 18.3399 106.527L21.3485 105.879C21.5152 105.817 21.5835 105.887 21.5998 106.031L21.5425 106.723C21.5152 106.832 21.4588 106.922 21.3554 106.979L18.6962 108.785L18.8534 112.557L26.2713 111.19C26.449 111.146 26.5328 111.208 26.5037 111.4L26.3747 112.497L18.9859 116.46L19.1038 119.829C19.0269 120.848 18.6928 121.59 18.1613 121.897C17.8682 122.066 17.7152 122.079 17.4221 121.937C16.8488 121.659 16.4865 120.894 16.4053 119.829L16.5232 116.46L9.13439 112.497L9.00537 111.4C8.97717 111.208 9.06091 111.146 9.23779 111.19L16.6557 112.556L16.8137 108.784L14.1546 106.978C14.052 106.922 13.9948 106.833 13.9674 106.722L13.9102 106.031C13.9255 105.887 13.9948 105.816 14.1614 105.879L17.1701 106.526C17.229 105.859 17.37 105.35 17.7161 105.02C17.7486 104.99 17.7665 104.994 17.7973 105.024Z" fill="#B1BAC3"/>
</svg>
