<svg width="65" height="21" viewBox="0 0 65 21" fill="none" xmlns="http://www.w3.org/2000/svg">
<path fill-rule="evenodd" clip-rule="evenodd" d="M24.3846 10.4571C24.7298 10.1136 25.2621 9.97259 25.9577 9.91448L25.2801 6.9058C25.2143 6.73918 25.2878 6.67082 25.439 6.65458L26.1628 6.71183C26.2773 6.73918 26.3713 6.79557 26.4302 6.89897L28.3204 9.55816L32.2681 9.40093L30.8369 1.98306C30.7907 1.80533 30.8557 1.72158 31.0573 1.75064L32.2049 1.87967L36.3518 9.26848L39.8774 9.15056C40.9438 9.22747 41.7206 9.56157 42.0419 10.0931C42.2187 10.3862 42.2316 10.5391 42.0837 10.8322C41.7923 11.4056 40.9925 11.7679 39.8774 11.8491L36.3518 11.7311L32.2049 19.12L31.0573 19.249C30.8565 19.2772 30.7916 19.1934 30.8369 19.0166L32.2664 11.5987L28.3195 11.4406L26.4294 14.0998C26.3713 14.2023 26.2781 14.2596 26.1619 14.2869L25.4382 14.3442C25.2878 14.3288 25.2134 14.2596 25.2792 14.093L25.9568 11.0843C25.2587 11.0253 24.7264 10.8843 24.3803 10.5383C24.3495 10.5058 24.3538 10.4878 24.3846 10.4571Z" fill="#B1BAC3"/>
<line y1="10.501" x2="65" y2="10.501" stroke="#B1BAC3" stroke-dasharray="2 2"/>
</svg>
