<svg width="25" height="26" viewBox="0 0 25 26" fill="none" xmlns="http://www.w3.org/2000/svg">
<path d="M23.8281 13H3.90625V5.96875C3.90625 5.10718 4.60718 4.40625 5.46875 4.40625C6.023 4.40625 6.51035 4.69653 6.78784 5.13281C5.98257 6.36362 6.0707 8.0418 7.12173 9.18726C6.91782 9.41738 6.92539 9.76909 7.1457 9.9894L7.69814 10.5418C7.92695 10.7707 8.29795 10.7707 8.52681 10.5418L13.1669 5.90176C13.3958 5.67295 13.3958 5.30195 13.1669 5.0731L12.6145 4.52065C12.3942 4.30034 12.0425 4.29282 11.8124 4.49668C10.9359 3.69253 9.74722 3.45034 8.67866 3.74644C7.9727 2.72983 6.79746 2.0625 5.46875 2.0625C3.31484 2.0625 1.5625 3.81484 1.5625 5.96875V13H1.17188C0.524658 13 0 13.5247 0 14.1719V14.9531C0 15.6003 0.524658 16.125 1.17188 16.125H1.5625V17.6875C1.5625 19.0757 2.16611 20.3227 3.125 21.181V22.7656C3.125 23.4128 3.64966 23.9375 4.29688 23.9375H5.07812C5.72534 23.9375 6.25 23.4128 6.25 22.7656V22.375H18.75V22.7656C18.75 23.4128 19.2747 23.9375 19.9219 23.9375H20.7031C21.3503 23.9375 21.875 23.4128 21.875 22.7656V21.181C22.8339 20.3227 23.4375 19.0757 23.4375 17.6875V16.125H23.8281C24.4753 16.125 25 15.6003 25 14.9531V14.1719C25 13.5247 24.4753 13 23.8281 13Z" fill="#2873BA"/>
</svg>
