<svg width="30" height="30" viewBox="0 0 30 30" fill="none" xmlns="http://www.w3.org/2000/svg">
<g clip-path="url(#clip0_177_1043)">
<path d="M8.25 15C10.3177 15 12 13.3177 12 11.25C12 9.18234 10.3177 7.5 8.25 7.5C6.18234 7.5 4.5 9.18234 4.5 11.25C4.5 13.3177 6.18234 15 8.25 15ZM24.75 9H14.25C13.8356 9 13.5 9.33562 13.5 9.75V16.5H3V6.75C3 6.33562 2.66438 6 2.25 6H0.75C0.335625 6 0 6.33562 0 6.75V23.25C0 23.6644 0.335625 24 0.75 24H2.25C2.66438 24 3 23.6644 3 23.25V21H27V23.25C27 23.6644 27.3356 24 27.75 24H29.25C29.6644 24 30 23.6644 30 23.25V14.25C30 11.3503 27.6497 9 24.75 9Z" fill="#2873BA"/>
</g>
<defs>
<clipPath id="clip0_177_1043">
<rect width="30" height="30" fill="white"/>
</clipPath>
</defs>
</svg>
