<svg width="24" height="24" viewBox="0 0 24 24" fill="none" xmlns="http://www.w3.org/2000/svg">
<g clip-path="url(#clip0_71_1429)">
<path fill-rule="evenodd" clip-rule="evenodd" d="M3.24809 20.6542C3.25004 19.8671 3.69731 19.0976 4.42583 18.2363L0.212935 15.5722C-0.0526901 15.457 -0.0468308 15.2949 0.107466 15.1035L1.00004 14.3417C1.16215 14.2421 1.33403 14.1992 1.51958 14.2499L6.71879 15.1288L11.0508 10.4374L0.937544 3.59564C0.681685 3.44525 0.6602 3.27533 0.923872 3.07806L2.38286 1.914L15.5665 5.61908L19.461 1.45501C20.7676 0.324155 22.0372 -0.181704 23.0118 0.0585302C23.5489 0.191343 23.7383 0.351499 23.9043 0.855405C24.2266 1.84369 23.7266 3.17181 22.545 4.539L18.3809 8.43353L22.086 21.6171L20.9219 23.0761C20.7247 23.3378 20.5547 23.3163 20.4043 23.0624L13.5606 12.9511L8.86918 17.2812L9.74809 22.4804C9.79887 22.664 9.75786 22.8359 9.65629 22.9999L8.89458 23.8925C8.70512 24.0468 8.54106 24.0527 8.42583 23.787L5.76176 19.5742C4.89653 20.3046 4.127 20.7519 3.33598 20.7519C3.26372 20.7499 3.24809 20.7245 3.24809 20.6542Z" fill="#8C98A6"/>
</g>
<defs>
<clipPath id="clip0_71_1429">
<rect width="24" height="24" fill="white"/>
</clipPath>
</defs>
</svg>
