<svg width="25" height="26" viewBox="0 0 25 26" fill="none" xmlns="http://www.w3.org/2000/svg">
<g clip-path="url(#clip0_177_1047)">
<path d="M24.3056 4.66669C24.6892 4.66669 25 4.35593 25 3.97225V2.58336C25 2.19968 24.6892 1.88892 24.3056 1.88892H0.694444C0.310764 1.88892 0 2.19968 0 2.58336V3.97225C0 4.35593 0.310764 4.66669 0.694444 4.66669H1.38802V21.3334H0.694444C0.310764 21.3334 0 21.6441 0 22.0278V23.4167C0 23.8004 0.310764 24.1111 0.694444 24.1111H11.1111V20.6389C11.1111 20.257 11.4236 19.9445 11.8056 19.9445H13.1944C13.5764 19.9445 13.8889 20.257 13.8889 20.6389V24.1111H24.3056C24.6892 24.1111 25 23.8004 25 23.4167V22.0278C25 21.6441 24.6892 21.3334 24.3056 21.3334H23.6111V4.66669H24.3056ZM11.1111 6.61114C11.1111 6.33336 11.3889 6.05558 11.6667 6.05558H13.3333C13.6111 6.05558 13.8889 6.33336 13.8889 6.61114V8.2778C13.8889 8.55558 13.6111 8.83336 13.3333 8.83336H11.6667C11.3889 8.83336 11.1111 8.55558 11.1111 8.2778V6.61114ZM11.1111 10.7778C11.1111 10.5 11.3889 10.2222 11.6667 10.2222H13.3333C13.6111 10.2222 13.8889 10.5 13.8889 10.7778V12.4445C13.8889 12.7222 13.6111 13 13.3333 13H11.6667C11.3889 13 11.1111 12.7222 11.1111 12.4445V10.7778ZM5.55556 6.61114C5.55556 6.33336 5.83333 6.05558 6.11111 6.05558H7.77778C8.05556 6.05558 8.33333 6.33336 8.33333 6.61114V8.2778C8.33333 8.55558 8.05556 8.83336 7.77778 8.83336H6.11111C5.83333 8.83336 5.55556 8.55558 5.55556 8.2778V6.61114ZM7.77778 13H6.11111C5.83333 13 5.55556 12.7222 5.55556 12.4445V10.7778C5.55556 10.5 5.83333 10.2222 6.11111 10.2222H7.77778C8.05556 10.2222 8.33333 10.5 8.33333 10.7778V12.4445C8.33333 12.7222 8.05556 13 7.77778 13ZM8.33333 18.5556C8.33333 16.2544 10.1988 14.3889 12.5 14.3889C14.8012 14.3889 16.6667 16.2544 16.6667 18.5556H8.33333ZM19.4444 12.4445C19.4444 12.7222 19.1667 13 18.8889 13H17.2222C16.9444 13 16.6667 12.7222 16.6667 12.4445V10.7778C16.6667 10.5 16.9444 10.2222 17.2222 10.2222H18.8889C19.1667 10.2222 19.4444 10.5 19.4444 10.7778V12.4445ZM19.4444 8.2778C19.4444 8.55558 19.1667 8.83336 18.8889 8.83336H17.2222C16.9444 8.83336 16.6667 8.55558 16.6667 8.2778V6.61114C16.6667 6.33336 16.9444 6.05558 17.2222 6.05558H18.8889C19.1667 6.05558 19.4444 6.33336 19.4444 6.61114V8.2778Z" fill="#2873BA"/>
</g>
<defs>
<clipPath id="clip0_177_1047">
<rect width="25" height="25" fill="white" transform="translate(0 0.5)"/>
</clipPath>
</defs>
</svg>
