<svg width="23" height="22" viewBox="0 0 23 22" fill="none" xmlns="http://www.w3.org/2000/svg">
<path d="M20.0938 0.0625H2.90625C1.6123 0.0625 0.5625 1.1123 0.5625 2.40625V19.5938C0.5625 20.8877 1.6123 21.9375 2.90625 21.9375H20.0938C21.3877 21.9375 22.4375 20.8877 22.4375 19.5938V2.40625C22.4375 1.1123 21.3877 0.0625 20.0938 0.0625ZM12.2812 14.125H9.9375V16.4688C9.9375 16.8984 9.58594 17.25 9.15625 17.25H7.59375C7.16406 17.25 6.8125 16.8984 6.8125 16.4688V5.53125C6.8125 5.10156 7.16406 4.75 7.59375 4.75H12.2812C14.8643 4.75 16.9688 6.85449 16.9688 9.4375C16.9688 12.0205 14.8643 14.125 12.2812 14.125ZM12.2812 7.875H9.9375V11H12.2812C13.1406 11 13.8438 10.2969 13.8438 9.4375C13.8438 8.57812 13.1406 7.875 12.2812 7.875Z" fill="#2873BA"/>
</svg>
