<svg width="18" height="18" viewBox="0 0 18 18" fill="none" xmlns="http://www.w3.org/2000/svg">
<path fill-rule="evenodd" clip-rule="evenodd" d="M2.43575 15.491C2.43722 14.9007 2.77267 14.3235 3.31907 13.6775L0.159338 11.6794C-0.0398847 11.593 -0.03549 11.4714 0.0802351 11.3278L0.749683 10.7565C0.871267 10.6818 1.00018 10.6496 1.13934 10.6877L5.03884 11.3469L8.28793 7.82824L0.702807 2.69679C0.510908 2.58399 0.494795 2.45655 0.692553 2.30859L1.78681 1.43553L11.6747 4.2144L14.5957 1.09128C15.5757 0.243122 16.5278 -0.136281 17.2588 0.0438986C17.6617 0.14351 17.8038 0.26363 17.9283 0.641568C18.17 1.38279 17.795 2.37891 16.9087 3.40432L13.7856 6.32528L16.5645 16.2132L15.6914 17.3074C15.5435 17.5037 15.416 17.4876 15.3032 17.2972L10.1703 9.71354L6.65166 12.9612L7.31086 16.8607C7.34894 16.9984 7.31818 17.1273 7.24201 17.2503L6.67071 17.9198C6.52861 18.0355 6.40556 18.0399 6.31914 17.8407L4.32105 14.6809C3.67211 15.2288 3.09495 15.5642 2.50167 15.5642C2.44747 15.5628 2.43575 15.5437 2.43575 15.491Z" fill="white"/>
</svg>
