<svg width="25" height="25" viewBox="0 0 25 25" fill="none" xmlns="http://www.w3.org/2000/svg">
<path d="M7.40664 14.6321C7.54492 14.7595 8.00313 15.0001 8.75 15.0001C9.49687 15.0001 9.95547 14.7595 10.0934 14.6321C10.7191 14.0552 11.441 13.7501 12.1816 13.7501H12.8184C13.559 13.7501 14.2812 14.0552 14.9066 14.6321C15.0449 14.7595 15.5031 15.0001 16.25 15.0001C16.9969 15.0001 17.4555 14.7595 17.5934 14.6321C18.1738 14.0966 18.8387 13.8071 19.5227 13.7665L15.1148 10.618L15.818 10.1157C15.9602 10.0149 16.1414 9.9782 16.3109 10.0138L20.2309 10.8548C21.243 11.0708 22.2402 10.4263 22.4574 9.41414C22.6742 8.40164 22.0297 7.40477 21.0168 7.18758L17.0969 6.34656C15.8965 6.08953 14.6352 6.35125 13.6375 7.06453L10.5117 9.29773C10.1062 9.58641 9.75547 9.93992 9.46797 10.3501L6.78711 14.1798C7.00078 14.3059 7.20977 14.4505 7.40664 14.6321ZM24.375 16.2501H23.75C22.7328 16.2501 21.9609 15.9212 21.559 15.5509C21.2113 15.2302 20.791 15.0001 20.318 15.0001H19.6812C19.2082 15.0001 18.7879 15.2302 18.4402 15.5509C18.0391 15.9212 17.2672 16.2501 16.25 16.2501C15.2328 16.2501 14.4609 15.9212 14.059 15.5509C13.7113 15.2302 13.291 15.0001 12.818 15.0001H12.1812C11.7082 15.0001 11.2879 15.2302 10.9402 15.5509C10.5391 15.9212 9.76719 16.2501 8.75 16.2501C7.73281 16.2501 6.96094 15.9212 6.55898 15.5509C6.21133 15.2302 5.79102 15.0001 5.31797 15.0001H4.68125C4.2082 15.0001 3.78789 15.2302 3.44023 15.5509C3.03906 15.9212 2.26719 16.2501 1.25 16.2501H0.625C0.279687 16.2501 0 16.5298 0 16.8751V18.1251C0 18.4704 0.279687 18.7501 0.625 18.7501H1.25C2.75859 18.7501 4.09062 18.2739 5 17.5063C5.90938 18.2743 7.24141 18.7501 8.75 18.7501C10.2586 18.7501 11.5906 18.2739 12.5 17.5063C13.4094 18.2743 14.7414 18.7501 16.25 18.7501C17.7586 18.7501 19.0906 18.2739 20 17.5063C20.9094 18.2743 22.2414 18.7501 23.75 18.7501H24.375C24.7203 18.7501 25 18.4704 25 18.1251V16.8751C25 16.5298 24.7203 16.2501 24.375 16.2501ZM4.375 12.5001C6.10078 12.5001 7.5 11.1009 7.5 9.37508C7.5 7.6493 6.10078 6.25008 4.375 6.25008C2.64922 6.25008 1.25 7.6493 1.25 9.37508C1.25 11.1009 2.64922 12.5001 4.375 12.5001Z" fill="#2873BA"/>
</svg>
