<svg width="26" height="26" viewBox="0 0 26 26" fill="none" xmlns="http://www.w3.org/2000/svg">
<g clip-path="url(#clip0_177_1059)">
<path d="M12.9951 1.24226C13.0342 1.47175 13.7812 5.85652 13.7812 7.53132C13.7812 10.085 12.4238 11.9063 10.417 12.6387L11.0469 24.2647C11.0811 24.9337 10.5488 25.5001 9.875 25.5001H6.75C6.08105 25.5001 5.54395 24.9385 5.57812 24.2647L6.20801 12.6387C4.19629 11.9063 2.84375 10.0801 2.84375 7.53132C2.84375 5.85163 3.59082 1.47175 3.62988 1.24226C3.78613 0.251046 5.8418 0.236398 5.96875 1.29597V8.1905C6.03223 8.35652 6.70605 8.34675 6.75 8.1905C6.81836 6.95515 7.13574 1.39362 7.14062 1.26667C7.30176 0.251046 9.32324 0.251046 9.47949 1.26667C9.48926 1.39851 9.80176 6.95515 9.87012 8.1905C9.91406 8.34675 10.5928 8.35652 10.6514 8.1905V1.29597C10.7783 0.241281 12.8389 0.251046 12.9951 1.24226ZM18.8154 15.1925L18.083 24.2305C18.0244 24.9141 18.5664 25.5001 19.25 25.5001H21.9844C22.6338 25.5001 23.1562 24.9776 23.1562 24.3282V1.67194C23.1562 1.02741 22.6338 0.50007 21.9844 0.50007C17.9561 0.50007 11.1738 9.21589 18.8154 15.1925Z" fill="#2873BA"/>
</g>
<defs>
<clipPath id="clip0_177_1059">
<rect width="25" height="25" fill="white" transform="translate(0.5 0.5)"/>
</clipPath>
</defs>
</svg>
