<svg width="25" height="26" viewBox="0 0 25 26" fill="none" xmlns="http://www.w3.org/2000/svg">
<g clip-path="url(#clip0_177_1057)">
<path d="M24.8011 9.05C17.8804 2.64883 7.11676 2.65117 0.198795 9.05C-0.0613614 9.29063 -0.0664395 9.69805 0.185123 9.94766L1.52262 11.2746C1.76247 11.5129 2.1484 11.518 2.39762 11.2895C8.09762 6.06758 16.9015 6.06641 22.6027 11.2895C22.8519 11.518 23.2379 11.5125 23.4777 11.2746L24.8152 9.94766C25.0664 9.69805 25.0613 9.29063 24.8011 9.05ZM12.5 16.75C11.1191 16.75 9.99997 17.8691 9.99997 19.25C9.99997 20.6309 11.1191 21.75 12.5 21.75C13.8808 21.75 15 20.6309 15 19.25C15 17.8691 13.8808 16.75 12.5 16.75ZM20.4168 13.4848C15.9144 9.50313 9.08044 9.50742 4.58317 13.4848C4.31364 13.723 4.30504 14.1367 4.5609 14.3891L5.90622 15.7168C6.14059 15.948 6.51794 15.9637 6.76754 15.748C10.0468 12.9133 14.9605 12.9195 18.232 15.748C18.4816 15.9637 18.859 15.9484 19.0933 15.7168L20.4386 14.3891C20.6949 14.1367 20.6859 13.7227 20.4168 13.4848Z" fill="#2873BA"/>
</g>
<defs>
<clipPath id="clip0_177_1057">
<rect width="25" height="25" fill="white" transform="translate(0 0.5)"/>
</clipPath>
</defs>
</svg>
