<svg width="198" height="198" viewBox="0 0 198 198" fill="none" xmlns="http://www.w3.org/2000/svg">
<g clip-path="url(#clip0_33_1427)">
<path d="M27.0154 166.716C13.6332 152.53 4.73407 134.711 1.43262 115.492C-1.86883 96.2719 0.574089 76.5055 8.45546 58.6676C11.0807 52.7507 14.2849 47.1079 18.0212 41.8218C25.5098 31.2049 35.0249 22.1743 46.0186 15.2501C62.5919 4.80484 81.8911 -0.490502 101.475 0.0339774C121.058 0.558457 140.047 6.87919 156.037 18.1965C166.669 25.7205 175.722 35.2561 182.683 46.2636C193.209 62.8639 198.547 82.2244 198.016 101.873C197.485 121.521 191.108 140.565 179.702 156.572C172.141 167.209 162.542 176.237 151.462 183.132C145.942 186.572 140.095 189.455 134.005 191.738C115.687 198.556 95.7646 199.817 76.7329 195.365C57.7012 190.912 40.4066 180.943 27.0154 166.706V166.716ZM27.1531 166.587C31.5934 171.249 36.4762 175.468 41.7327 179.185C46.9918 182.895 52.6073 186.073 58.4962 188.671C79.2187 197.723 102.427 199.363 124.217 193.316C146.007 187.27 165.05 173.905 178.143 155.469C181.839 150.263 185.011 144.705 187.613 138.875C198.179 115.268 198.985 88.4419 189.855 64.2432C187.59 58.2637 184.739 52.5225 181.344 47.1034C174.54 36.2244 165.661 26.7912 155.213 19.342C139.452 8.11235 120.714 1.80995 101.37 1.23231C82.0253 0.654669 62.9443 5.82774 46.5413 16.0969C35.6399 22.9333 26.178 31.8318 18.6862 42.293C14.9495 47.5167 11.7383 53.0969 9.0994 58.9522C3.78122 70.7063 0.834353 83.394 0.427593 96.2886C0.0208326 109.183 2.16217 122.031 6.72895 134.097C9.0175 140.122 11.8982 145.905 15.3288 151.361C18.7673 156.808 22.7273 161.907 27.1531 166.587Z" fill="#2873BA"/>
<path d="M67.2172 74.7904L54.2427 65.4261C53.5428 64.9945 52.5116 65.0482 51.6296 65.5614L47.7217 67.836C46.5201 68.5359 45.9812 69.8446 46.5178 70.7638L53.4915 82.7409C52.8895 84.059 52.7915 85.3864 53.2418 86.4735C53.8158 87.8476 55.2413 88.7364 57.0775 88.8951L64.0512 100.87C64.5854 101.789 65.99 101.966 67.1915 101.269L71.0995 98.9918C71.9814 98.4786 72.539 97.6061 72.4994 96.7849L70.2269 80.2517C72.875 78.9896 87.9166 73.8829 96.7895 70.7521L104.757 98.8705C104.791 98.9909 104.84 99.1062 104.904 99.2135C105.025 99.4121 105.187 99.5833 105.378 99.7159C105.569 99.8485 105.786 99.9396 106.015 99.9833C106.714 100.116 107.437 99.9836 108.044 99.6124L116.241 94.8393C117.125 94.326 117.683 93.4535 117.641 92.6324L117.279 83.4081L123.781 79.8761C124.244 79.6306 124.615 79.2407 124.836 78.7656C124.932 78.5673 124.979 78.3493 124.975 78.1292C124.97 77.9091 124.914 77.6931 124.81 77.4989L123.07 74.5127C122.952 74.3265 122.792 74.1707 122.603 74.058C122.413 73.9454 122.2 73.8789 121.98 73.8642C121.459 73.8216 120.937 73.951 120.496 74.2328L116.997 76.4071L116.92 74.4521L122.82 71.2467C123.284 71.0019 123.654 70.6118 123.875 70.1362C123.97 69.9379 124.018 69.7199 124.013 69.4998C124.009 69.2797 123.953 69.0637 123.849 68.8695L122.111 65.8834C121.993 65.6971 121.833 65.5414 121.644 65.4287C121.454 65.316 121.241 65.2495 121.021 65.2348C120.499 65.1922 119.977 65.3216 119.535 65.6034L116.644 67.4044L116.355 60.0231C121.42 57.1537 126.429 54.1792 131.401 51.1581C134.061 49.5391 136.697 47.8819 139.311 46.1867C140.925 45.1439 142.54 44.0871 144.112 42.9906C145.211 42.2252 146.207 41.3202 147.073 40.2985C149.919 36.9088 150.423 32.9452 148.302 30.5003C146.256 28.1371 142.05 27.5632 137.845 29.0772C137.183 29.3229 136.534 29.6041 135.902 29.9194C134.871 30.421 133.846 30.9389 132.824 31.4615C130.18 32.8161 127.554 34.2104 124.946 35.6443C119.296 38.7409 113.697 41.9455 108.147 45.2582L107.876 45.4192L101.603 41.5256L104.594 39.8925C105.058 39.6491 105.429 39.2586 105.648 38.7821C105.744 38.5838 105.791 38.3657 105.787 38.1456C105.783 37.9255 105.726 37.7096 105.623 37.5153L103.884 34.5316C103.767 34.3453 103.607 34.1895 103.417 34.0769C103.228 33.9642 103.015 33.8977 102.795 33.883C102.272 33.8384 101.75 33.9681 101.309 34.2516L95.6089 37.7999L93.9454 36.7688L97.5594 34.8045C98.0224 34.559 98.3927 34.1691 98.614 33.694C98.7096 33.4957 98.7571 33.2777 98.7527 33.0576C98.7482 32.8375 98.6919 32.6215 98.5883 32.4273L96.8501 29.4412C96.7324 29.255 96.5723 29.0992 96.383 28.9865C96.1936 28.8738 95.9804 28.8074 95.7605 28.7926C95.2378 28.7496 94.7155 28.88 94.2744 29.1636L87.9913 33.0735L80.1473 28.2047C79.4474 27.7731 78.4162 27.8245 77.5319 28.34L69.3333 33.1271C68.7118 33.4725 68.2404 34.036 68.0105 34.7088C67.9138 34.9868 67.8951 35.286 67.9564 35.5739C68.0176 35.8617 68.1566 36.1273 68.3581 36.3419L88.8685 57.156" fill="#2873BA"/>
<path d="M80.8612 158.152H90.399C90.8095 158.17 91.2181 158.085 91.5879 157.906C91.9577 157.727 92.2772 157.459 92.5175 157.125C92.7771 156.776 92.9773 156.385 93.1101 155.971C93.2643 155.496 93.3775 155.009 93.4484 154.515L93.8193 152.275H97.123L96.7754 161.066H68.855V158.525H70.8568C71.1764 158.526 71.4954 158.495 71.8087 158.432C72.0972 158.372 72.3656 158.24 72.588 158.047C72.839 157.813 73.0206 157.514 73.1129 157.184C73.2514 156.695 73.3144 156.187 73.2996 155.679V132.6C73.3159 132.049 73.253 131.499 73.1129 130.967C73.0211 130.618 72.8448 130.298 72.5996 130.033C72.3899 129.82 72.1237 129.67 71.832 129.602C71.5121 129.529 71.1849 129.494 70.8568 129.497H68.855V126.982H95.3079L95.4945 135.77H92.1582L91.9248 133.509C91.8004 132.343 91.5064 131.449 91.0429 130.829C90.5794 130.208 89.8577 129.897 88.8778 129.896H80.8519V141.84H92.1582V144.707H80.8612V158.152Z" fill="#2873BA"/>
<path d="M117.969 155.425C117.953 155.975 118.016 156.525 118.156 157.058C118.249 157.408 118.43 157.729 118.681 157.991C118.896 158.204 119.166 158.353 119.46 158.422C119.773 158.495 120.093 158.53 120.415 158.527H122.414V161.068H105.966V158.525H107.965C108.294 158.528 108.622 158.493 108.943 158.42C109.234 158.351 109.5 158.202 109.71 157.988C109.954 157.723 110.13 157.403 110.224 157.055C110.363 156.523 110.425 155.973 110.408 155.422V129.896H106.593C105.988 129.882 105.383 129.96 104.801 130.129C104.368 130.261 103.97 130.489 103.635 130.794C103.328 131.089 103.097 131.453 102.961 131.855C102.804 132.316 102.699 132.792 102.648 133.276L102.312 136.241H99.1016L99.3582 126.987H129.045L129.278 136.241H126.091L125.741 133.281C125.69 132.797 125.585 132.321 125.428 131.86C125.291 131.457 125.059 131.093 124.752 130.799C124.418 130.493 124.019 130.265 123.585 130.134C123.003 129.965 122.399 129.886 121.793 129.9H117.969V155.425Z" fill="#2873BA"/>
</g>
<defs>
<clipPath id="clip0_33_1427">
<rect width="198" height="198" fill="white"/>
</clipPath>
</defs>
</svg>
