<svg width="198" height="198" viewBox="0 0 198 198" fill="none" xmlns="http://www.w3.org/2000/svg">
<path d="M84.6749 144.638H91.25C91.7938 144.638 92.2543 144.566 92.6316 144.422C93.02 144.266 93.3418 144.061 93.5971 143.806C93.8523 143.551 94.052 143.257 94.1963 142.924C94.3406 142.58 94.4404 142.219 94.4959 141.842L94.729 140.377H96.5101L96.277 146.336H78V144.905H78.4328C78.8101 144.905 79.1652 144.882 79.4981 144.838C79.8421 144.782 80.1418 144.677 80.397 144.522C80.6522 144.366 80.852 144.139 80.9962 143.839C81.1516 143.528 81.2293 143.123 81.2293 142.624V125.878C81.2293 125.346 81.1571 124.919 81.0129 124.597C80.8686 124.275 80.6689 124.031 80.4136 123.864C80.1584 123.687 79.8588 123.57 79.5148 123.515C79.1818 123.459 78.8212 123.432 78.4328 123.432H78V122H95.1784L95.3449 127.959H93.5804L93.414 126.494C93.3696 126.117 93.2808 125.762 93.1476 125.429C93.0256 125.085 92.8424 124.785 92.5983 124.53C92.3653 124.275 92.0656 124.075 91.6994 123.931C91.3443 123.776 90.9115 123.698 90.4011 123.698H84.6749V132.77H92.8979V134.434H84.6749V144.638Z" fill="#2873BA"/>
<path d="M109.927 142.458C109.927 142.99 109.999 143.418 110.143 143.739C110.299 144.061 110.498 144.311 110.742 144.488C110.998 144.655 111.297 144.766 111.641 144.821C111.985 144.877 112.346 144.905 112.723 144.905H113.506V146.336H102.902V144.905H103.685C104.062 144.905 104.417 144.882 104.75 144.838C105.094 144.782 105.394 144.677 105.649 144.522C105.904 144.366 106.104 144.139 106.248 143.839C106.403 143.528 106.481 143.123 106.481 142.624V123.698H103.219C102.719 123.698 102.298 123.776 101.954 123.931C101.621 124.075 101.343 124.275 101.121 124.53C100.91 124.785 100.749 125.085 100.638 125.429C100.539 125.762 100.466 126.117 100.422 126.494L100.239 127.959H98.4745L98.641 122H117.834L118 127.959H116.236L116.069 126.494C116.025 126.117 115.947 125.762 115.836 125.429C115.725 125.085 115.564 124.785 115.353 124.53C115.142 124.275 114.865 124.075 114.521 123.931C114.177 123.776 113.75 123.698 113.239 123.698H109.927V142.458Z" fill="#2873BA"/>
<g clip-path="url(#clip0_27_1426)">
<path fill-rule="evenodd" clip-rule="evenodd" d="M77.714 99.1933C77.7187 97.3567 78.7809 95.5612 80.5112 93.5514L70.5055 87.3353C69.8747 87.0664 69.8886 86.6881 70.255 86.2415L72.3749 84.4642C72.7599 84.2317 73.1681 84.1315 73.6088 84.25L85.957 86.3008L96.2455 75.3541L72.2265 59.3899C71.6188 59.039 71.5678 58.6426 72.194 58.1823L75.6591 55.4661L106.97 64.1113L116.22 54.3952C119.323 51.7565 122.338 50.5761 124.653 51.1367C125.928 51.4466 126.378 51.8203 126.773 52.9961C127.538 55.3021 126.351 58.401 123.544 61.5911L113.654 70.6784L122.454 101.44L119.689 104.844C119.221 105.455 118.817 105.405 118.46 104.812L102.206 81.2194L91.0641 91.3229L93.1515 103.454C93.2721 103.883 93.1747 104.284 92.9335 104.667L91.1244 106.749C90.6745 107.109 90.2848 107.123 90.0112 106.503L83.684 96.6732C81.6291 98.3776 79.8014 99.4212 77.9228 99.4212C77.7511 99.4166 77.714 99.3574 77.714 99.1933Z" fill="#2873BA"/>
</g>
<defs>
<clipPath id="clip0_27_1426">
<rect width="57" height="56" fill="white" transform="translate(70 51)"/>
</clipPath>
</defs>
</svg>
