<svg width="697" height="198" viewBox="0 0 697 198" fill="none" xmlns="http://www.w3.org/2000/svg">
<path d="M74.2054 109.877L52.9783 94.5199C51.8332 93.8121 50.146 93.9001 48.7032 94.7418L42.3095 98.4721C40.3436 99.6198 39.4619 101.766 40.3398 103.274L51.7492 122.916C50.7644 125.078 50.6041 127.255 51.3408 129.037C52.2798 131.291 54.6121 132.749 57.6162 133.009L69.0255 152.647C69.8997 154.155 72.1976 154.445 74.1634 153.301L80.5571 149.567C82 148.726 82.9123 147.295 82.8474 145.948L79.1295 118.834C83.4619 116.764 108.071 108.389 122.587 103.254L135.623 149.368C135.678 149.566 135.759 149.755 135.863 149.931C136.062 150.257 136.326 150.537 136.639 150.755C136.952 150.972 137.306 151.122 137.68 151.193C138.824 151.411 140.008 151.194 141.001 150.585L154.411 142.757C155.858 141.915 156.77 140.485 156.701 139.138L156.109 124.01L166.748 118.218C167.505 117.815 168.111 117.176 168.473 116.397C168.63 116.071 168.707 115.714 168.7 115.353C168.693 114.992 168.601 114.638 168.431 114.319L165.584 109.422C165.391 109.116 165.129 108.861 164.819 108.676C164.51 108.491 164.161 108.382 163.801 108.358C162.948 108.288 162.095 108.501 161.373 108.963L155.648 112.529L155.522 109.322L165.175 104.066C165.934 103.664 166.54 103.024 166.901 102.244C167.057 101.919 167.135 101.562 167.127 101.201C167.12 100.84 167.028 100.486 166.859 100.167L164.015 95.2698C163.822 94.9644 163.56 94.7089 163.25 94.5241C162.941 94.3392 162.592 94.2303 162.232 94.2061C161.378 94.1362 160.524 94.3485 159.801 94.8106L155.071 97.7643L154.598 85.659C162.885 80.9531 171.08 76.0751 179.215 71.1205C183.566 68.4653 187.879 65.7476 192.155 62.9674C194.796 61.2573 197.438 59.5241 200.01 57.7259C201.809 56.4706 203.437 54.9865 204.854 53.3108C209.511 47.7517 210.336 41.2515 206.866 37.2419C203.518 33.3662 196.636 32.4251 189.757 34.9081C188.674 35.311 187.612 35.7721 186.578 36.2893C184.891 37.1118 183.215 37.9612 181.543 38.8182C177.217 41.0398 172.92 43.3264 168.653 45.6781C159.41 50.7564 150.249 56.0119 141.169 61.4447L140.726 61.7087L130.462 55.3232L135.356 52.6451C136.116 52.2459 136.723 51.6055 137.081 50.824C137.238 50.4988 137.315 50.1412 137.308 49.7802C137.301 49.4192 137.209 49.065 137.039 48.7465L134.195 43.8531C134.003 43.5477 133.741 43.2922 133.431 43.1074C133.121 42.9226 132.772 42.8137 132.413 42.7895C131.558 42.7164 130.703 42.929 129.981 43.394L120.656 49.2132L117.934 47.5222L123.847 44.3007C124.605 43.8981 125.21 43.2587 125.572 42.4796C125.729 42.1544 125.807 41.7968 125.799 41.4358C125.792 41.0749 125.7 40.7207 125.53 40.4021L122.687 35.5049C122.494 35.1995 122.232 34.9441 121.922 34.7592C121.613 34.5744 121.264 34.4655 120.904 34.4413C120.049 34.3708 119.194 34.5846 118.473 35.0497L108.193 41.4619L95.3599 33.4772C94.2148 32.7694 92.5276 32.8536 91.0809 33.6991L77.6675 41.5499C76.6506 42.1162 75.8794 43.0405 75.5032 44.1439C75.3451 44.5998 75.3145 45.0904 75.4147 45.5625C75.515 46.0346 75.7423 46.4702 76.072 46.822L109.628 80.957" fill="white"/>
<path d="M171.166 154V151.606H171.907C172.743 151.606 173.503 151.53 174.187 151.378C174.909 151.188 175.479 150.827 175.897 150.295C176.353 149.725 176.581 148.889 176.581 147.787V119.8C176.581 118.584 176.372 117.691 175.954 117.121C175.536 116.551 174.966 116.171 174.244 115.981C173.56 115.791 172.781 115.696 171.907 115.696H171.166V113.302H199.894L200.179 123.277H197.215L196.93 120.826C196.854 119.99 196.626 119.23 196.246 118.546C195.904 117.824 195.372 117.254 194.65 116.836C193.966 116.38 193.054 116.152 191.914 116.152H182.338V131.314H196.075V134.107H182.338V151.15H193.339C194.555 151.15 195.524 150.941 196.246 150.523C197.006 150.067 197.576 149.497 197.956 148.813C198.374 148.091 198.64 147.312 198.754 146.476L199.153 144.025H202.117L201.718 154H171.166ZM204.549 154V151.606H205.062C205.974 151.606 206.753 151.511 207.399 151.321C208.045 151.093 208.672 150.713 209.28 150.181C209.888 149.649 210.553 148.908 211.275 147.958L218.457 138.667L211.275 128.863C210.743 128.217 210.192 127.666 209.622 127.21C209.09 126.754 208.558 126.412 208.026 126.184C207.494 125.956 206.943 125.842 206.373 125.842H205.632V123.448H220.11V125.842H219.939C218.647 125.842 217.773 126.013 217.317 126.355C216.899 126.659 216.69 127.039 216.69 127.495C216.69 127.875 216.804 128.255 217.032 128.635C217.26 129.015 217.583 129.509 218.001 130.117L221.763 135.247L224.727 130.972C225.145 130.326 225.487 129.718 225.753 129.148C226.019 128.54 226.152 127.989 226.152 127.495C226.152 126.811 225.848 126.374 225.24 126.184C224.67 125.956 223.948 125.842 223.074 125.842H222.903V123.448H235.386V125.842H234.873C234.151 125.842 233.486 125.937 232.878 126.127C232.308 126.279 231.719 126.621 231.111 127.153C230.541 127.685 229.876 128.464 229.116 129.49L223.245 137.299L231.624 148.585C232.194 149.307 232.726 149.896 233.22 150.352C233.752 150.808 234.265 151.131 234.759 151.321C235.253 151.511 235.728 151.606 236.184 151.606H236.925V154H222.219V151.606H222.504C223.644 151.606 224.499 151.454 225.069 151.15C225.639 150.808 225.924 150.333 225.924 149.725C225.924 149.307 225.772 148.851 225.468 148.357C225.202 147.825 224.632 146.97 223.758 145.792L219.939 140.662L215.949 146.248C215.607 146.704 215.265 147.274 214.923 147.958C214.581 148.604 214.41 149.231 214.41 149.839C214.41 150.447 214.676 150.903 215.208 151.207C215.778 151.473 216.69 151.606 217.944 151.606H218.115V154H204.549ZM253.098 154.57C250.59 154.57 248.348 154.038 246.372 152.974C244.434 151.91 242.895 150.238 241.755 147.958C240.653 145.64 240.102 142.619 240.102 138.895C240.102 134.829 240.653 131.637 241.755 129.319C242.895 126.963 244.415 125.31 246.315 124.36C248.253 123.372 250.419 122.878 252.813 122.878C254.409 122.878 255.967 123.087 257.487 123.505C259.007 123.923 260.261 124.569 261.249 125.443C262.237 126.279 262.731 127.362 262.731 128.692C262.731 129.566 262.541 130.269 262.161 130.801C261.781 131.333 261.211 131.713 260.451 131.941C259.729 132.169 258.798 132.283 257.658 132.283C257.658 131.067 257.506 129.965 257.202 128.977C256.936 127.989 256.461 127.21 255.777 126.64C255.093 126.032 254.105 125.728 252.813 125.728C251.369 125.728 250.096 126.108 248.994 126.868C247.93 127.628 247.094 128.958 246.486 130.858C245.916 132.758 245.631 135.418 245.631 138.838C245.631 141.536 245.916 143.778 246.486 145.564C247.094 147.35 248.025 148.68 249.279 149.554C250.533 150.428 252.186 150.865 254.238 150.865C255.416 150.865 256.499 150.694 257.487 150.352C258.475 150.01 259.33 149.535 260.052 148.927C260.812 148.319 261.401 147.635 261.819 146.875C262.123 147.103 262.351 147.407 262.503 147.787C262.693 148.129 262.788 148.566 262.788 149.098C262.788 149.972 262.427 150.827 261.705 151.663C260.983 152.499 259.9 153.202 258.456 153.772C257.05 154.304 255.264 154.57 253.098 154.57ZM265.512 154V151.606H266.253C267.127 151.606 267.906 151.511 268.59 151.321C269.312 151.131 269.882 150.751 270.3 150.181C270.718 149.573 270.927 148.68 270.927 147.502V116.95C270.927 115.81 270.699 114.974 270.243 114.442C269.825 113.872 269.255 113.511 268.533 113.359C267.849 113.169 267.089 113.074 266.253 113.074H265.512V110.68H276.285V147.502C276.285 148.68 276.494 149.573 276.912 150.181C277.33 150.751 277.9 151.131 278.622 151.321C279.344 151.511 280.123 151.606 280.959 151.606H281.7V154H265.512ZM297.728 154.57C294.726 154.57 292.408 153.696 290.774 151.948C289.14 150.162 288.323 147.312 288.323 143.398V129.718C288.323 128.578 288.095 127.742 287.639 127.21C287.221 126.64 286.651 126.279 285.929 126.127C285.245 125.937 284.485 125.842 283.649 125.842H283.478V123.448H293.681V143.113C293.681 144.747 293.852 146.153 294.194 147.331C294.574 148.509 295.201 149.402 296.075 150.01C296.949 150.618 298.146 150.922 299.666 150.922C301.338 150.922 302.706 150.542 303.77 149.782C304.834 148.984 305.613 147.901 306.107 146.533C306.601 145.127 306.848 143.512 306.848 141.688V129.946C306.848 128.73 306.639 127.837 306.221 127.267C305.803 126.697 305.233 126.317 304.511 126.127C303.827 125.937 303.048 125.842 302.174 125.842H302.003V123.448H312.206V147.787C312.206 148.889 312.415 149.725 312.833 150.295C313.289 150.827 313.859 151.188 314.543 151.378C315.265 151.53 316.044 151.606 316.88 151.606H317.051V154H307.988L307.247 149.383H306.962C306.392 150.447 305.746 151.321 305.024 152.005C304.34 152.689 303.618 153.221 302.858 153.601C302.098 153.943 301.281 154.19 300.407 154.342C299.533 154.494 298.64 154.57 297.728 154.57ZM330.069 154.57C328.169 154.57 326.516 154.342 325.11 153.886C323.704 153.43 322.602 152.765 321.804 151.891C321.044 150.979 320.664 149.858 320.664 148.528C320.664 147.502 320.873 146.704 321.291 146.134C321.709 145.564 322.184 145.165 322.716 144.937C323.286 144.709 323.799 144.595 324.255 144.595C324.255 145.925 324.445 147.141 324.825 148.243C325.205 149.345 325.851 150.219 326.763 150.865C327.675 151.511 328.891 151.834 330.411 151.834C332.425 151.834 333.964 151.359 335.028 150.409C336.13 149.421 336.681 148.167 336.681 146.647C336.681 145.697 336.472 144.918 336.054 144.31C335.674 143.702 334.971 143.113 333.945 142.543C332.957 141.935 331.532 141.232 329.67 140.434C327.732 139.56 326.117 138.724 324.825 137.926C323.571 137.09 322.621 136.14 321.975 135.076C321.367 133.974 321.063 132.606 321.063 130.972C321.063 128.388 322.032 126.412 323.97 125.044C325.946 123.638 328.549 122.935 331.779 122.935C333.603 122.935 335.123 123.182 336.339 123.676C337.593 124.132 338.524 124.759 339.132 125.557C339.778 126.355 340.101 127.229 340.101 128.179C340.101 129.205 339.74 130.041 339.018 130.687C338.334 131.295 337.327 131.599 335.997 131.599C335.997 129.699 335.598 128.217 334.8 127.153C334.002 126.089 332.767 125.557 331.095 125.557C329.803 125.557 328.758 125.747 327.96 126.127C327.162 126.507 326.573 127.039 326.193 127.723C325.851 128.407 325.68 129.205 325.68 130.117C325.68 131.067 325.908 131.865 326.364 132.511C326.858 133.157 327.618 133.765 328.644 134.335C329.708 134.867 331.076 135.475 332.748 136.159C334.762 136.995 336.396 137.831 337.65 138.667C338.904 139.503 339.816 140.472 340.386 141.574C340.994 142.676 341.298 144.025 341.298 145.621C341.298 148.585 340.272 150.827 338.22 152.347C336.168 153.829 333.451 154.57 330.069 154.57ZM344.876 154V151.606H345.617C346.453 151.606 347.213 151.53 347.897 151.378C348.619 151.188 349.189 150.827 349.607 150.295C350.063 149.725 350.291 148.889 350.291 147.787V129.718C350.291 128.578 350.063 127.742 349.607 127.21C349.189 126.64 348.619 126.279 347.897 126.127C347.213 125.937 346.453 125.842 345.617 125.842H345.446V123.448H355.649V147.502C355.649 148.68 355.858 149.573 356.276 150.181C356.694 150.751 357.264 151.131 357.986 151.321C358.708 151.511 359.487 151.606 360.323 151.606H361.064V154H344.876ZM352.742 117.748C351.83 117.748 351.051 117.482 350.405 116.95C349.797 116.418 349.493 115.506 349.493 114.214C349.493 112.884 349.797 111.972 350.405 111.478C351.051 110.946 351.83 110.68 352.742 110.68C353.616 110.68 354.376 110.946 355.022 111.478C355.668 111.972 355.991 112.884 355.991 114.214C355.991 115.506 355.668 116.418 355.022 116.95C354.376 117.482 353.616 117.748 352.742 117.748ZM366.019 128.863C365.753 128.065 365.43 127.457 365.05 127.039C364.708 126.583 364.271 126.279 363.739 126.127C363.245 125.937 362.599 125.842 361.801 125.842V123.448H376.051V125.842H375.31C374.17 125.842 373.315 126.07 372.745 126.526C372.175 126.944 371.89 127.628 371.89 128.578C371.89 128.882 371.928 129.205 372.004 129.547C372.08 129.889 372.194 130.269 372.346 130.687L376.222 141.46C376.564 142.372 376.906 143.379 377.248 144.481C377.59 145.545 377.894 146.571 378.16 147.559C378.464 148.509 378.711 149.326 378.901 150.01C379.053 149.478 379.281 148.775 379.585 147.901C379.889 147.027 380.231 146.096 380.611 145.108C381.029 144.082 381.409 143.113 381.751 142.201L385.855 131.086C386.045 130.63 386.178 130.193 386.254 129.775C386.33 129.319 386.368 128.939 386.368 128.635C386.368 127.647 386.045 126.944 385.399 126.526C384.791 126.07 383.86 125.842 382.606 125.842H382.207V123.448H394.405V125.842H393.721C392.999 125.842 392.391 125.956 391.897 126.184C391.441 126.412 391.023 126.849 390.643 127.495C390.263 128.141 389.845 129.072 389.389 130.288L380.383 154H375.196L366.019 128.863ZM410.691 154.57C406.549 154.57 403.3 153.202 400.944 150.466C398.626 147.73 397.467 143.892 397.467 138.952C397.467 133.632 398.569 129.623 400.773 126.925C402.977 124.227 406.093 122.878 410.121 122.878C413.807 122.878 416.695 124.018 418.785 126.298C420.913 128.578 421.977 131.979 421.977 136.501V139.123H402.996C403.072 141.897 403.433 144.158 404.079 145.906C404.725 147.654 405.656 148.946 406.872 149.782C408.126 150.58 409.665 150.979 411.489 150.979C412.819 150.979 413.997 150.789 415.023 150.409C416.087 150.029 416.999 149.535 417.759 148.927C418.557 148.319 419.184 147.673 419.64 146.989C419.906 147.103 420.153 147.331 420.381 147.673C420.609 148.015 420.723 148.433 420.723 148.927C420.723 149.687 420.362 150.504 419.64 151.378C418.918 152.252 417.816 153.012 416.334 153.658C414.852 154.266 412.971 154.57 410.691 154.57ZM416.22 136.045C416.22 134.031 416.011 132.264 415.593 130.744C415.213 129.224 414.567 128.046 413.655 127.21C412.743 126.374 411.527 125.956 410.007 125.956C408.601 125.956 407.404 126.355 406.416 127.153C405.466 127.913 404.706 129.034 404.136 130.516C403.604 131.998 403.262 133.841 403.11 136.045H416.22ZM447.693 154V151.606H449.004C449.84 151.606 450.6 151.53 451.284 151.378C452.006 151.188 452.576 150.827 452.994 150.295C453.45 149.725 453.678 148.889 453.678 147.787V116.152H448.206C447.104 116.152 446.23 116.38 445.584 116.836C444.938 117.254 444.463 117.824 444.159 118.546C443.855 119.23 443.646 119.99 443.532 120.826L443.247 123.277H440.283L440.568 113.302H472.659L472.944 123.277H469.98L469.695 120.826C469.619 119.99 469.41 119.23 469.068 118.546C468.764 117.824 468.289 117.254 467.643 116.836C466.997 116.38 466.104 116.152 464.964 116.152H459.435V147.502C459.435 148.68 459.644 149.573 460.062 150.181C460.48 150.751 461.05 151.131 461.772 151.321C462.494 151.511 463.273 151.606 464.109 151.606H465.42V154H447.693ZM475.731 154V151.606H475.902C476.776 151.606 477.555 151.511 478.239 151.321C478.961 151.131 479.531 150.751 479.949 150.181C480.367 149.573 480.576 148.68 480.576 147.502V129.718C480.576 128.578 480.348 127.742 479.892 127.21C479.474 126.64 478.904 126.279 478.182 126.127C477.498 125.937 476.738 125.842 475.902 125.842H475.731V123.448H484.509L485.592 129.091H485.877C486.371 127.951 486.903 126.906 487.473 125.956C488.043 125.006 488.803 124.265 489.753 123.733C490.703 123.163 492.014 122.878 493.686 122.878C495.776 122.878 497.315 123.239 498.303 123.961C499.329 124.683 499.842 125.709 499.842 127.039C499.842 128.217 499.424 129.186 498.588 129.946C497.79 130.706 496.441 131.086 494.541 131.086C494.541 130.022 494.446 129.167 494.256 128.521C494.066 127.875 493.743 127.4 493.287 127.096C492.869 126.792 492.28 126.64 491.52 126.64C490.456 126.64 489.563 127.058 488.841 127.894C488.119 128.73 487.549 129.794 487.131 131.086C486.713 132.378 486.409 133.727 486.219 135.133C486.029 136.501 485.934 137.736 485.934 138.838V147.787C485.934 148.889 486.143 149.725 486.561 150.295C487.017 150.827 487.587 151.188 488.271 151.378C488.993 151.53 489.772 151.606 490.608 151.606H492.204V154H475.731ZM511.001 154.57C509.329 154.57 507.809 154.247 506.441 153.601C505.111 152.917 504.066 151.91 503.306 150.58C502.546 149.212 502.166 147.502 502.166 145.45C502.166 142.41 503.23 140.168 505.358 138.724C507.524 137.28 510.792 136.482 515.162 136.33L519.893 136.159V132.739C519.893 131.371 519.779 130.174 519.551 129.148C519.323 128.084 518.829 127.248 518.069 126.64C517.309 126.032 516.15 125.728 514.592 125.728C513.148 125.728 512.046 125.994 511.286 126.526C510.526 127.058 510.013 127.799 509.747 128.749C509.519 129.661 509.405 130.725 509.405 131.941C507.809 131.941 506.593 131.675 505.757 131.143C504.959 130.573 504.56 129.642 504.56 128.35C504.56 127.02 505.016 125.956 505.928 125.158C506.878 124.36 508.132 123.79 509.69 123.448C511.248 123.068 512.958 122.878 514.82 122.878C518.316 122.878 520.919 123.619 522.629 125.101C524.377 126.583 525.251 129.129 525.251 132.739V147.502C525.251 148.566 525.365 149.402 525.593 150.01C525.821 150.58 526.201 150.998 526.733 151.264C527.265 151.492 527.949 151.606 528.785 151.606H528.956V154H521.261L520.349 149.098H519.893C519.095 150.162 518.316 151.112 517.556 151.948C516.796 152.746 515.903 153.392 514.877 153.886C513.889 154.342 512.597 154.57 511.001 154.57ZM512.312 151.036C513.87 151.036 515.2 150.713 516.302 150.067C517.442 149.421 518.316 148.509 518.924 147.331C519.57 146.115 519.893 144.709 519.893 143.113V138.496L516.245 138.667C514.079 138.743 512.369 139.066 511.115 139.636C509.899 140.206 509.025 141.004 508.493 142.03C507.961 143.018 507.695 144.253 507.695 145.735C507.695 146.913 507.866 147.901 508.208 148.699C508.55 149.459 509.063 150.048 509.747 150.466C510.431 150.846 511.286 151.036 512.312 151.036ZM535.631 128.863C535.365 128.065 535.042 127.457 534.662 127.039C534.32 126.583 533.883 126.279 533.351 126.127C532.857 125.937 532.211 125.842 531.413 125.842V123.448H545.663V125.842H544.922C543.782 125.842 542.927 126.07 542.357 126.526C541.787 126.944 541.502 127.628 541.502 128.578C541.502 128.882 541.54 129.205 541.616 129.547C541.692 129.889 541.806 130.269 541.958 130.687L545.834 141.46C546.176 142.372 546.518 143.379 546.86 144.481C547.202 145.545 547.506 146.571 547.772 147.559C548.076 148.509 548.323 149.326 548.513 150.01C548.665 149.478 548.893 148.775 549.197 147.901C549.501 147.027 549.843 146.096 550.223 145.108C550.641 144.082 551.021 143.113 551.363 142.201L555.467 131.086C555.657 130.63 555.79 130.193 555.866 129.775C555.942 129.319 555.98 128.939 555.98 128.635C555.98 127.647 555.657 126.944 555.011 126.526C554.403 126.07 553.472 125.842 552.218 125.842H551.819V123.448H564.017V125.842H563.333C562.611 125.842 562.003 125.956 561.509 126.184C561.053 126.412 560.635 126.849 560.255 127.495C559.875 128.141 559.457 129.072 559.001 130.288L549.995 154H544.808L535.631 128.863ZM580.302 154.57C576.16 154.57 572.911 153.202 570.555 150.466C568.237 147.73 567.078 143.892 567.078 138.952C567.078 133.632 568.18 129.623 570.384 126.925C572.588 124.227 575.704 122.878 579.732 122.878C583.418 122.878 586.306 124.018 588.396 126.298C590.524 128.578 591.588 131.979 591.588 136.501V139.123H572.607C572.683 141.897 573.044 144.158 573.69 145.906C574.336 147.654 575.267 148.946 576.483 149.782C577.737 150.58 579.276 150.979 581.1 150.979C582.43 150.979 583.608 150.789 584.634 150.409C585.698 150.029 586.61 149.535 587.37 148.927C588.168 148.319 588.795 147.673 589.251 146.989C589.517 147.103 589.764 147.331 589.992 147.673C590.22 148.015 590.334 148.433 590.334 148.927C590.334 149.687 589.973 150.504 589.251 151.378C588.529 152.252 587.427 153.012 585.945 153.658C584.463 154.266 582.582 154.57 580.302 154.57ZM585.831 136.045C585.831 134.031 585.622 132.264 585.204 130.744C584.824 129.224 584.178 128.046 583.266 127.21C582.354 126.374 581.138 125.956 579.618 125.956C578.212 125.956 577.015 126.355 576.027 127.153C575.077 127.913 574.317 129.034 573.747 130.516C573.215 131.998 572.873 133.841 572.721 136.045H585.831ZM594.938 154V151.606H595.679C596.553 151.606 597.332 151.511 598.016 151.321C598.738 151.131 599.308 150.751 599.726 150.181C600.144 149.573 600.353 148.68 600.353 147.502V116.95C600.353 115.81 600.125 114.974 599.669 114.442C599.251 113.872 598.681 113.511 597.959 113.359C597.275 113.169 596.515 113.074 595.679 113.074H594.938V110.68H605.711V147.502C605.711 148.68 605.92 149.573 606.338 150.181C606.756 150.751 607.326 151.131 608.048 151.321C608.77 151.511 609.549 151.606 610.385 151.606H611.126V154H594.938Z" fill="white"/>
</svg>
